<?xml version="1.0" encoding="UTF-8"?>
<svg id="g-Better-Yale-Google-Slides-Secret-Societies-Artboard_3-interactions-img" xmlns="http://www.w3.org/2000/svg" baseProfile="tiny" version="1.2" viewBox="0 0 489.1 337.238">
  <!-- Generator: Adobe Illustrator 29.4.0, SVG Export Plug-In . SVG Version: 2.1.0 Build 152)  -->
  <g>
    <polygon points="57.51 143.966 57.708 143.568 54.528 141.978 54.528 142.375 52.937 141.58 51.347 144.562 57.311 147.544 58.901 144.562 57.51 143.966"/>
    <polygon points="57.51 143.966 57.708 143.568 54.528 141.978 54.528 142.375 52.937 141.58 51.347 144.562 57.311 147.544 58.901 144.562 57.51 143.966" fill="none" stroke="#fff"/>
  </g>
  <g>
    <polygon points="70.63 126.869 69.239 130.249 70.034 130.646 69.239 132.634 68.046 132.237 66.654 135.815 70.233 137.207 71.823 133.827 71.028 133.43 72.022 131.243 73.016 131.64 74.407 128.46 70.63 126.869"/>
    <polygon points="70.63 126.869 69.239 130.249 70.034 130.646 69.239 132.634 68.046 132.237 66.654 135.815 70.233 137.207 71.823 133.827 71.028 133.43 72.022 131.243 73.016 131.64 74.407 128.46 70.63 126.869" fill="none" stroke="#fff"/>
  </g>
  <g>
    <polygon points="268.831 91.086 264.259 99.634 269.627 102.616 274.199 94.068 268.831 91.086"/>
    <polygon points="268.831 91.086 264.259 99.634 269.627 102.616 274.199 94.068 268.831 91.086" fill="none" stroke="#fff"/>
  </g>
  <g>
    <polygon points="154.722 268.016 155.119 267.022 149.553 264.04 148.559 266.028 145.378 271.991 143.987 274.576 143.788 274.973 145.378 275.769 149.553 277.955 150.149 276.564 153.926 278.751 156.113 274.377 158.499 270.003 154.722 268.016"/>
    <polygon points="154.722 268.016 155.119 267.022 149.553 264.04 148.559 266.028 145.378 271.991 143.987 274.576 143.788 274.973 145.378 275.769 149.553 277.955 150.149 276.564 153.926 278.751 156.113 274.377 158.499 270.003 154.722 268.016" fill="none" stroke="#fff"/>
  </g>
  <g>
    <polygon points="455.105 55.103 455.9 53.115 453.912 52.32 451.526 51.326 450.731 53.314 451.129 53.513 449.936 56.495 449.141 56.097 448.743 56.296 448.346 57.091 447.948 57.091 446.557 60.868 449.141 61.862 448.942 62.26 450.731 62.856 450.93 62.459 453.316 63.453 454.707 59.874 454.31 59.676 454.906 58.682 454.707 58.284 453.514 57.886 454.707 54.905 455.105 55.103"/>
    <polygon points="455.105 55.103 455.9 53.115 453.912 52.32 451.526 51.326 450.731 53.314 451.129 53.513 449.936 56.495 449.141 56.097 448.743 56.296 448.346 57.091 447.948 57.091 446.557 60.868 449.141 61.862 448.942 62.26 450.731 62.856 450.93 62.459 453.316 63.453 454.707 59.874 454.31 59.676 454.906 58.682 454.707 58.284 453.514 57.886 454.707 54.905 455.105 55.103" fill="none" stroke="#fff"/>
  </g>
  <g>
    <polygon points="291.693 146.749 289.109 151.123 297.458 155.894 299.844 151.321 291.693 146.749"/>
    <polygon points="291.693 146.749 289.109 151.123 297.458 155.894 299.844 151.321 291.693 146.749" fill="none" stroke="#fff"/>
  </g>
  <g>
    <polygon points="110.787 224.479 104.028 220.9 102.637 223.485 100.649 222.292 96.872 229.449 97.667 230.045 97.468 230.443 99.456 231.437 99.058 232.033 106.414 236.009 108.203 232.431 107.01 231.834 108.203 229.648 108.402 229.25 109.396 229.846 110.191 228.256 109.197 227.66 110.787 224.479"/>
    <polygon points="110.787 224.479 104.028 220.9 102.637 223.485 100.649 222.292 96.872 229.449 97.667 230.045 97.468 230.443 99.456 231.437 99.058 232.033 106.414 236.009 108.203 232.431 107.01 231.834 108.203 229.648 108.402 229.25 109.396 229.846 110.191 228.256 109.197 227.66 110.787 224.479" fill="none" stroke="#fff"/>
  </g>
<style>
#g-Better-Yale-Google-Slides-Secret-Societies-Artboard_3-interactions-img rect, #g-Better-Yale-Google-Slides-Secret-Societies-Artboard_3-interactions-img circle, #g-Better-Yale-Google-Slides-Secret-Societies-Artboard_3-interactions-img path, #g-Better-Yale-Google-Slides-Secret-Societies-Artboard_3-interactions-img line, #g-Better-Yale-Google-Slides-Secret-Societies-Artboard_3-interactions-img polyline, #g-Better-Yale-Google-Slides-Secret-Societies-Artboard_3-interactions-img polygon { vector-effect: non-scaling-stroke; }
</style>
</svg>
