<?xml version="1.0" encoding="UTF-8"?>
<svg id="g-Better-Yale-Website-_Recovered_-Artboard_1-interactions-img" xmlns="http://www.w3.org/2000/svg" baseProfile="tiny" version="1.2" viewBox="0 0 1920.748 1039.501">
  <!-- Generator: Adobe Illustrator 29.4.0, SVG Export Plug-In . SVG Version: 2.1.0 Build 152)  -->
  <g id="_x3C_Group_x3E__New_Haven_Green">
    <polygon points="1364.137 658.476 1284.12 614.688 1329.825 531.861 1410.203 576.433 1364.137 658.476" fill="#5a8e62"/>
    <g>
      <polygon points="1361.967 561.515 1362.579 560.444 1354.012 555.855 1353.247 557.078 1352.789 556.926 1350.647 560.75 1351.106 561.056 1350.341 562.585 1358.907 567.175 1359.061 567.021 1359.672 565.951 1361.049 566.563 1363.344 562.28 1361.967 561.515" fill="#3a3430"/>
      <polygon points="1361.967 561.515 1362.579 560.444 1354.012 555.855 1353.247 557.078 1352.789 556.926 1350.647 560.75 1351.106 561.056 1350.341 562.585 1358.907 567.175 1359.061 567.021 1359.672 565.951 1361.049 566.563 1363.344 562.28 1361.967 561.515" fill="none" stroke="#b79474" stroke-width=".7"/>
    </g>
    <g>
      <polygon points="1346.67 589.661 1346.976 589.203 1337.951 584.307 1337.491 585.072 1334.432 590.732 1334.126 591.344 1343.152 596.392 1343.457 595.78 1344.834 596.545 1348.199 590.426 1346.67 589.661" fill="#3a3430"/>
      <polygon points="1346.67 589.661 1346.976 589.203 1337.951 584.307 1337.491 585.072 1334.432 590.732 1334.126 591.344 1343.152 596.392 1343.457 595.78 1344.834 596.545 1348.199 590.426 1346.67 589.661" fill="none" stroke="#b79474" stroke-width=".7"/>
    </g>
    <g>
      <polygon points="1328.772 622.704 1328.619 622.551 1316.993 616.432 1313.475 623.315 1314.545 623.927 1315.005 624.08 1325.101 629.435 1325.406 629.587 1326.477 627.598 1327.242 627.905 1328.619 625.457 1327.701 624.998 1328.772 622.704" fill="#3a3430"/>
      <polygon points="1328.772 622.704 1328.619 622.551 1316.993 616.432 1313.475 623.315 1314.545 623.927 1315.005 624.08 1325.101 629.435 1325.406 629.587 1326.477 627.598 1327.242 627.905 1328.619 625.457 1327.701 624.998 1328.772 622.704" fill="none" stroke="#b79474" stroke-width=".7"/>
    </g>
    <g>
      <path d="M1328.557,1007.024s-.882,1.792-2.463,4.349" fill="none" stroke="#fff" stroke-miterlimit="10" stroke-width="2"/>
      <path d="M1320.201,1019.459c-4.729,5.437-11.092,10.361-18.095,9.236-14.621-2.348-65.993-22.3-65.993-22.3,0,0-107.903-48.224-138.092-75.095-30.189-26.871-75.731-80.871-86.14-118.606-10.41-37.735-.254-132.241,15.13-168.575,15.384-36.334,69.013-119.863,69.013-119.863,0,0,33.732-31.425,51.484-67.402s23.408-83.421,32.834-98.503,21.504-35.392,44.931-50.115c23.427-14.723,44.071-30.782,58.472-36.09s73.952-10.255,84.799-43.797c3.719-11.501,6.163-19.058,7.769-24.024" fill="none" stroke="#fff" stroke-dasharray="10.014 10.014" stroke-miterlimit="10" stroke-width="2"/>
      <path d="M1377.852,199.561l1.537-4.753s.285-1.808.723-4.943" fill="none" stroke="#fff" stroke-miterlimit="10" stroke-width="2"/>
      <path d="M1381.394,179.984c2.495-20.718,5.791-57.859.194-76.295-8.012-26.393-36.393-60.024-29.34-87.341,7.053-27.317,20.702-44.883,20.702-44.883,0,0,26.274-20.169,57.385-23.422s41.943-25.175,73.286-4.455c31.343,20.72,37.481,17.661,54.106,49.763,16.625,32.102,23.695,51.74,25.423,73.42,1.728,21.68-15.711,70.695-15.711,70.695,0,0-12.309,42.794-6.127,63.312,6.182,20.518,7.385,63.783-.942,100.859-8.327,37.076-14.768,116.255-24.508,145.162s-19.48,59.698-37.547,70.067c0,0-57.425,37.49-80.653,35.562s-60.297-9.256-75.569-18.597c-15.272-9.34-14.393-2.74-14.393-2.74l-46.193,82.452s-13.601,21.111-8.055,47.128c5.546,26.017,37.781,75.35,37.781,75.35l57.782,68.443s23.988,23.494,26.071,45.314c2.083,21.82-10.491,42.626-10.491,42.626,0,0-27.15,20.61-22.643,42.667,2.841,13.903-2.364,28.981-6.6,38.228" fill="none" stroke="#fff" stroke-dasharray="9.969 9.969" stroke-miterlimit="10" stroke-width="2"/>
      <path d="M1353.16,977.782c-1.434,2.754-2.444,4.357-2.444,4.357" fill="none" stroke="#fff" stroke-miterlimit="10" stroke-width="2"/>
    </g>
  </g>
  <polygon id="Old_Campus_Grass" points="1280.472 611.858 1236.187 587.918 1281.548 504.701 1326.211 529.636 1280.472 611.858" fill="#405945"/>
  <g id="_x3C_Group_x3E__Old_Campus">
    <g id="Dwight_Hall">
      <polygon points="1266.35 548.451 1266.656 547.686 1267.115 547.074 1268.339 547.839 1269.562 545.391 1264.208 542.485 1263.749 542.179 1262.526 544.627 1263.138 544.933 1261.914 547.228 1260.078 546.156 1259.62 546.921 1259.007 546.615 1258.702 546.615 1258.549 546.921 1258.549 547.228 1258.855 547.38 1258.09 548.757 1257.937 548.604 1257.631 548.757 1257.325 549.063 1257.477 549.369 1257.784 549.522 1258.242 549.828 1257.784 550.439 1259.62 551.357 1258.395 553.499 1257.784 553.193 1256.56 555.64 1259.007 556.865 1262.373 558.7 1262.985 557.476 1263.596 556.405 1262.373 555.793 1262.831 555.182 1263.749 553.346 1265.126 554.264 1265.585 554.417 1265.891 553.958 1266.044 553.958 1266.35 553.805 1266.503 553.652 1266.503 553.499 1266.35 553.193 1266.656 552.581 1267.115 551.969 1267.268 551.969 1267.574 551.664 1267.574 551.357 1267.421 551.204 1267.727 550.746 1265.738 549.522 1266.197 548.91 1266.35 548.451" fill="#b79474"/>
      <polygon points="1266.35 548.451 1266.656 547.686 1267.115 547.074 1268.339 547.839 1269.562 545.391 1264.208 542.485 1263.749 542.179 1262.526 544.627 1263.138 544.933 1261.914 547.228 1260.078 546.156 1259.62 546.921 1259.007 546.615 1258.702 546.615 1258.549 546.921 1258.549 547.228 1258.855 547.38 1258.09 548.757 1257.937 548.604 1257.631 548.757 1257.325 549.063 1257.477 549.369 1257.784 549.522 1258.242 549.828 1257.784 550.439 1259.62 551.357 1258.395 553.499 1257.784 553.193 1256.56 555.64 1259.007 556.865 1262.373 558.7 1262.985 557.476 1263.596 556.405 1262.373 555.793 1262.831 555.182 1263.749 553.346 1265.126 554.264 1265.585 554.417 1265.891 553.958 1266.044 553.958 1266.35 553.805 1266.503 553.652 1266.503 553.499 1266.35 553.193 1266.656 552.581 1267.115 551.969 1267.268 551.969 1267.574 551.664 1267.574 551.357 1267.421 551.204 1267.727 550.746 1265.738 549.522 1266.197 548.91 1266.35 548.451" fill="none" stroke="#7c5f46" stroke-miterlimit="10" stroke-width=".5"/>
    </g>
    <g id="Art_Building">
      <polygon points="1254.04 579.418 1253.734 579.571 1247.309 576.053 1245.626 575.135 1245.626 574.675 1245.167 574.523 1244.862 574.828 1245.015 575.288 1244.097 576.97 1243.637 576.97 1243.485 577.276 1243.485 577.429 1243.637 577.582 1243.026 578.806 1241.649 581.254 1241.037 580.947 1240.272 581.101 1239.813 581.865 1240.119 582.63 1240.884 582.936 1240.272 584.16 1239.966 584.16 1239.661 584.313 1239.661 584.772 1239.813 585.078 1240.272 585.078 1240.425 584.925 1244.25 586.913 1243.79 587.984 1244.402 588.443 1245.473 588.902 1246.085 587.831 1247.003 588.29 1246.85 588.749 1247.309 589.055 1247.768 588.902 1247.921 588.443 1247.768 588.137 1248.991 585.843 1249.298 585.843 1249.604 585.537 1249.451 585.078 1248.991 584.925 1248.839 585.23 1247.921 584.619 1250.063 580.641 1251.439 581.406 1250.827 582.783 1252.51 583.854 1253.427 582.171 1252.969 581.865 1253.734 580.641 1253.887 580.183 1254.192 580.029 1254.345 579.571 1254.04 579.418" fill="#b79474"/>
      <polygon points="1254.04 579.418 1253.734 579.571 1247.309 576.053 1245.626 575.135 1245.626 574.675 1245.167 574.523 1244.862 574.828 1245.015 575.288 1244.097 576.97 1243.637 576.97 1243.485 577.276 1243.485 577.429 1243.637 577.582 1243.026 578.806 1241.649 581.254 1241.037 580.947 1240.272 581.101 1239.813 581.865 1240.119 582.63 1240.884 582.936 1240.272 584.16 1239.966 584.16 1239.661 584.313 1239.661 584.772 1239.813 585.078 1240.272 585.078 1240.425 584.925 1244.25 586.913 1243.79 587.984 1244.402 588.443 1245.473 588.902 1246.085 587.831 1247.003 588.29 1246.85 588.749 1247.309 589.055 1247.768 588.902 1247.921 588.443 1247.768 588.137 1248.991 585.843 1249.298 585.843 1249.604 585.537 1249.451 585.078 1248.991 584.925 1248.839 585.23 1247.921 584.619 1250.063 580.641 1251.439 581.406 1250.827 582.783 1252.51 583.854 1253.427 582.171 1252.969 581.865 1253.734 580.641 1253.887 580.183 1254.192 580.029 1254.345 579.571 1254.04 579.418" fill="none" stroke="#7c5f46" stroke-miterlimit="10" stroke-width=".5"/>
    </g>
    <g id="Battell_Chapel">
      <polygon points="1320.068 532.848 1318.844 532.236 1319.762 530.706 1316.244 528.564 1315.632 529.636 1310.584 526.882 1310.278 526.423 1309.819 526.27 1309.207 526.423 1309.054 526.729 1308.901 526.882 1309.054 527.494 1309.513 527.8 1309.972 527.646 1308.289 530.554 1307.678 529.941 1307.065 530.247 1306.913 530.859 1307.065 531.471 1306.76 531.93 1306.148 533.307 1306.453 533.46 1308.136 534.378 1313.032 536.825 1316.397 538.661 1317.008 537.743 1315.938 537.131 1316.703 535.908 1317.773 536.519 1319.303 536.519 1320.221 535.908 1320.68 534.99 1320.68 533.919 1320.068 532.848" fill="#b79474"/>
      <polygon points="1320.068 532.848 1318.844 532.236 1319.762 530.706 1316.244 528.564 1315.632 529.636 1310.584 526.882 1310.278 526.423 1309.819 526.27 1309.207 526.423 1309.054 526.729 1308.901 526.882 1309.054 527.494 1309.513 527.8 1309.972 527.646 1308.289 530.554 1307.678 529.941 1307.065 530.247 1306.913 530.859 1307.065 531.471 1306.76 531.93 1306.148 533.307 1306.453 533.46 1308.136 534.378 1313.032 536.825 1316.397 538.661 1317.008 537.743 1315.938 537.131 1316.703 535.908 1317.773 536.519 1319.303 536.519 1320.221 535.908 1320.68 534.99 1320.68 533.919 1320.068 532.848" fill="none" stroke="#7c5f46" stroke-miterlimit="10" stroke-width=".5"/>
    </g>
    <g id="Durfee_Hall">
      <polygon points="1291.615 516.633 1289.321 520.61 1298.193 525.505 1304.312 529.024 1305.842 529.941 1307.983 526.117 1291.615 516.633" fill="#b79474"/>
      <polygon points="1291.615 516.633 1289.321 520.61 1298.193 525.505 1304.312 529.024 1305.842 529.941 1307.983 526.117 1291.615 516.633" fill="none" stroke="#7c5f46" stroke-miterlimit="10" stroke-width=".5"/>
    </g>
    <g id="Lawrance_Hall">
      <polygon points="1307.83 554.57 1307.525 554.417 1304.159 552.428 1304.006 552.428 1303.394 553.499 1303.241 553.805 1303.394 553.958 1302.935 554.723 1303.241 554.875 1301.864 557.476 1301.559 557.323 1301.099 558.241 1301.252 558.394 1299.876 560.994 1299.57 560.842 1298.958 561.912 1299.264 562.065 1297.887 564.36 1297.581 564.36 1297.581 564.513 1297.123 565.278 1300.334 567.113 1300.947 567.266 1301.406 566.96 1301.099 566.348 1302.324 563.902 1302.935 563.902 1303.394 562.983 1303.088 562.524 1304.465 560.229 1305.077 560.229 1305.535 559.465 1305.077 559.006 1306.607 556.405 1307.065 556.405 1307.218 556.1 1307.065 555.793 1307.83 554.57" fill="#b79474"/>
      <polygon points="1307.83 554.57 1307.525 554.417 1304.159 552.428 1304.006 552.428 1303.394 553.499 1303.241 553.805 1303.394 553.958 1302.935 554.723 1303.241 554.875 1301.864 557.476 1301.559 557.323 1301.099 558.241 1301.252 558.394 1299.876 560.994 1299.57 560.842 1298.958 561.912 1299.264 562.065 1297.887 564.36 1297.581 564.36 1297.581 564.513 1297.123 565.278 1300.334 567.113 1300.947 567.266 1301.406 566.96 1301.099 566.348 1302.324 563.902 1302.935 563.902 1303.394 562.983 1303.088 562.524 1304.465 560.229 1305.077 560.229 1305.535 559.465 1305.077 559.006 1306.607 556.405 1307.065 556.405 1307.218 556.1 1307.065 555.793 1307.83 554.57" fill="none" stroke="#7c5f46" stroke-miterlimit="10" stroke-width=".5"/>
    </g>
    <g id="Phelps_Hall">
      <polygon points="1301.406 568.796 1300.947 568.49 1300.488 568.643 1299.723 568.338 1300.334 567.113 1297.123 565.278 1296.358 566.502 1295.745 566.195 1295.593 565.43 1295.133 565.278 1294.522 565.43 1294.369 565.89 1294.522 566.348 1294.216 567.113 1293.451 568.338 1292.686 569.867 1292.227 569.867 1291.921 570.173 1291.921 570.785 1292.38 571.091 1292.686 571.091 1292.992 570.938 1293.604 571.397 1297.734 573.844 1298.04 574.303 1298.499 574.457 1298.805 574.303 1299.111 573.692 1298.958 573.232 1299.723 571.856 1300.794 570.02 1301.252 569.867 1301.559 569.408 1301.406 568.796" fill="#b79474"/>
      <polygon points="1301.406 568.796 1300.947 568.49 1300.488 568.643 1299.723 568.338 1300.334 567.113 1297.123 565.278 1296.358 566.502 1295.745 566.195 1295.593 565.43 1295.133 565.278 1294.522 565.43 1294.369 565.89 1294.522 566.348 1294.216 567.113 1293.451 568.338 1292.686 569.867 1292.227 569.867 1291.921 570.173 1291.921 570.785 1292.38 571.091 1292.686 571.091 1292.992 570.938 1293.604 571.397 1297.734 573.844 1298.04 574.303 1298.499 574.457 1298.805 574.303 1299.111 573.692 1298.958 573.232 1299.723 571.856 1300.794 570.02 1301.252 569.867 1301.559 569.408 1301.406 568.796" fill="none" stroke="#7c5f46" stroke-miterlimit="10" stroke-width=".5"/>
    </g>
    <g id="Bingham_Hall">
      <polygon points="1286.591 592.388 1283.072 590.553 1282.155 589.941 1280.778 592.388 1282.002 593 1278.789 598.813 1277.718 600.649 1276.341 599.884 1275.73 600.955 1274.965 600.496 1273.741 599.884 1274.506 598.354 1274.047 598.048 1272.212 596.977 1269.611 601.719 1271.905 602.944 1272.212 602.331 1274.506 603.555 1273.894 604.626 1278.331 607.074 1280.472 603.096 1280.625 603.249 1281.084 603.096 1281.39 602.791 1281.084 602.179 1280.778 602.179 1285.214 594.836 1285.52 594.989 1286.896 592.541 1286.591 592.388" fill="#b79474"/>
      <polygon points="1286.591 592.388 1283.072 590.553 1282.155 589.941 1280.778 592.388 1282.002 593 1278.789 598.813 1277.718 600.649 1276.341 599.884 1275.73 600.955 1274.965 600.496 1273.741 599.884 1274.506 598.354 1274.047 598.048 1272.212 596.977 1269.611 601.719 1271.905 602.944 1272.212 602.331 1274.506 603.555 1273.894 604.626 1278.331 607.074 1280.472 603.096 1280.625 603.249 1281.084 603.096 1281.39 602.791 1281.084 602.179 1280.778 602.179 1285.214 594.836 1285.52 594.989 1286.896 592.541 1286.591 592.388" fill="none" stroke="#7c5f46" stroke-miterlimit="10" stroke-width=".5"/>
    </g>
    <polygon id="Wright_Hall" points="1280.754 508.984 1283.814 510.667 1283.202 511.89 1290.239 515.868 1288.403 519.08 1287.944 519.845 1286.568 519.08 1282.896 517.091 1281.519 516.327 1280.142 518.927 1278.46 521.681 1283.508 524.435 1284.425 524.893 1282.437 528.411 1274.941 524.281 1272.953 523.058 1280.754 508.984" fill="#b79474" stroke="#7c5f46" stroke-miterlimit="10" stroke-width=".5"/>
    <g id="Connecticut_Hall">
      <polygon points="1276.738 575.034 1275.514 577.176 1275.209 577.788 1272.914 581.765 1272.608 582.377 1271.384 584.366 1275.362 586.66 1276.432 584.671 1276.738 584.366 1276.891 584.059 1279.033 580.235 1279.338 579.623 1279.492 579.47 1280.715 577.329 1276.738 575.034" fill="#b79474"/>
      <polygon points="1276.738 575.034 1275.514 577.176 1275.209 577.788 1272.914 581.765 1272.608 582.377 1271.384 584.366 1275.362 586.66 1276.432 584.671 1276.738 584.366 1276.891 584.059 1279.033 580.235 1279.338 579.623 1279.492 579.47 1280.715 577.329 1276.738 575.034" fill="none" stroke="#7c5f46" stroke-miterlimit="10" stroke-width=".5"/>
    </g>
    <g id="Farnam_Hall">
      <polygon points="1316.397 538.661 1313.032 536.825 1312.419 537.743 1311.654 539.273 1309.054 543.862 1308.748 544.32 1308.136 545.545 1305.689 549.828 1305.23 550.592 1304.924 551.204 1304.159 552.428 1307.525 554.417 1308.289 553.346 1308.748 553.346 1309.207 553.04 1309.36 552.428 1309.054 551.969 1311.502 547.533 1312.267 547.38 1312.726 546.921 1312.726 546.156 1312.419 545.698 1315.02 541.414 1315.479 541.261 1315.938 540.955 1315.938 540.344 1315.785 540.037 1316.397 538.661" fill="#b79474"/>
      <polygon points="1316.397 538.661 1313.032 536.825 1312.419 537.743 1311.654 539.273 1309.054 543.862 1308.748 544.32 1308.136 545.545 1305.689 549.828 1305.23 550.592 1304.924 551.204 1304.159 552.428 1307.525 554.417 1308.289 553.346 1308.748 553.346 1309.207 553.04 1309.36 552.428 1309.054 551.969 1311.502 547.533 1312.267 547.38 1312.726 546.921 1312.726 546.156 1312.419 545.698 1315.02 541.414 1315.479 541.261 1315.938 540.955 1315.938 540.344 1315.785 540.037 1316.397 538.661" fill="none" stroke="#7c5f46" stroke-miterlimit="10" stroke-width=".5"/>
    </g>
    <g id="Welch_Hall">
      <polygon points="1293.604 571.397 1291.921 574.457 1290.086 577.821 1289.626 578.74 1289.015 579.504 1287.179 583.022 1285.19 586.388 1288.709 588.377 1289.321 588.683 1297.734 573.844 1293.604 571.397" fill="#b79474"/>
      <polygon points="1293.604 571.397 1291.921 574.457 1290.086 577.821 1289.626 578.74 1289.015 579.504 1287.179 583.022 1285.19 586.388 1288.709 588.377 1289.321 588.683 1297.734 573.844 1293.604 571.397" fill="none" stroke="#7c5f46" stroke-miterlimit="10" stroke-width=".5"/>
    </g>
    <g id="Corridor">
      <polygon points="1239.605 575.374 1238.993 576.598 1237.769 578.128 1241.747 580.269 1242.511 580.116 1243.123 580.422 1244.5 577.975 1239.605 575.374" fill="#3f3734"/>
      <polygon points="1239.605 575.374 1238.993 576.598 1237.769 578.128 1241.747 580.269 1242.511 580.116 1243.123 580.422 1244.5 577.975 1239.605 575.374" fill="none" stroke="#68615e" stroke-width=".7"/>
    </g>
    <g id="Lindsey-Chitttenden_Hall">
      <polygon points="1264.674 563.483 1264.368 563.483 1264.216 563.636 1260.391 561.494 1259.932 561.494 1258.097 560.423 1258.097 559.811 1259.167 557.976 1259.167 557.823 1255.496 555.987 1252.743 561.188 1252.589 561.494 1251.978 561.494 1251.518 561.8 1251.671 562.565 1252.283 562.718 1252.589 562.565 1251.213 565.165 1250.142 567.307 1250.601 567.613 1249.071 570.366 1249.53 571.896 1252.436 573.426 1253.813 573.12 1254.884 571.131 1259.32 573.579 1262.38 567.919 1262.533 568.072 1262.686 568.072 1263.144 567.919 1263.144 567.46 1262.991 567.307 1262.686 567.307 1264.368 564.247 1264.827 564.247 1264.98 563.942 1264.98 563.636 1264.674 563.483" fill="#b79474"/>
      <polygon points="1264.674 563.483 1264.368 563.483 1264.216 563.636 1260.391 561.494 1259.932 561.494 1258.097 560.423 1258.097 559.811 1259.167 557.976 1259.167 557.823 1255.496 555.987 1252.743 561.188 1252.589 561.494 1251.978 561.494 1251.518 561.8 1251.671 562.565 1252.283 562.718 1252.589 562.565 1251.213 565.165 1250.142 567.307 1250.601 567.613 1249.071 570.366 1249.53 571.896 1252.436 573.426 1253.813 573.12 1254.884 571.131 1259.32 573.579 1262.38 567.919 1262.533 568.072 1262.686 568.072 1263.144 567.919 1263.144 567.46 1262.991 567.307 1262.686 567.307 1264.368 564.247 1264.827 564.247 1264.98 563.942 1264.98 563.636 1264.674 563.483" fill="none" stroke="#7c5f46" stroke-miterlimit="10" stroke-width=".5"/>
    </g>
    <g id="McClellan_Hall">
      <polygon points="1263.387 567.426 1258.338 576.758 1258.491 576.911 1262.469 579.053 1266.293 571.71 1267.517 569.568 1263.387 567.426" fill="#b79474"/>
      <polygon points="1263.387 567.426 1258.338 576.758 1258.491 576.911 1262.469 579.053 1266.293 571.71 1267.517 569.568 1263.387 567.426" fill="none" stroke="#7c5f46" stroke-miterlimit="10" stroke-width=".5"/>
    </g>
    <g id="Vanderbilt_Hall">
      <polygon points="1270.825 588.36 1266.236 586.065 1266.236 585.606 1265.93 585.3 1265.318 585.453 1264.859 585.147 1263.483 584.382 1263.483 584.076 1263.023 583.771 1262.718 583.923 1260.882 582.853 1257.364 580.864 1256.599 580.405 1250.327 591.113 1254.151 593.255 1254.457 592.948 1255.987 589.737 1257.517 586.983 1258.587 586.677 1260.423 587.747 1260.27 588.207 1260.423 588.665 1260.882 588.819 1261.493 588.512 1263.176 589.277 1263.023 589.737 1263.023 590.042 1263.635 590.348 1263.941 590.195 1264.094 589.737 1266.542 591.266 1267.001 592.183 1263.635 597.997 1263.329 598.609 1267.307 600.597 1269.907 595.855 1272.508 590.807 1273.12 589.737 1270.825 588.36" fill="#b79474"/>
      <polygon points="1270.825 588.36 1266.236 586.065 1266.236 585.606 1265.93 585.3 1265.318 585.453 1264.859 585.147 1263.483 584.382 1263.483 584.076 1263.023 583.771 1262.718 583.923 1260.882 582.853 1257.364 580.864 1256.599 580.405 1250.327 591.113 1254.151 593.255 1254.457 592.948 1255.987 589.737 1257.517 586.983 1258.587 586.677 1260.423 587.747 1260.27 588.207 1260.423 588.665 1260.882 588.819 1261.493 588.512 1263.176 589.277 1263.023 589.737 1263.023 590.042 1263.635 590.348 1263.941 590.195 1264.094 589.737 1266.542 591.266 1267.001 592.183 1263.635 597.997 1263.329 598.609 1267.307 600.597 1269.907 595.855 1272.508 590.807 1273.12 589.737 1270.825 588.36" fill="none" stroke="#7c5f46" stroke-width=".5"/>
    </g>
  </g>
  <g>
    <path d="M1272.511,503.374l-.317.632-2.677-1.413-1.417-.782.158-.316-.95-.474-1.41-.782-.475.624-13.851-7.533.467-.94-2.993-1.571-2.986-1.729.309-.624-2.669-1.413-7.088,12.713-.634-.316-1.568,2.827,3.936,2.045,1.259-2.045,1.568.948,1.259.624-1.259,2.195.475.158,1.576.948,2.043,1.098-.309.624.15.158,1.109.632.467.308.634-1.098.467.158.634.316,5.821,3.293.634.316.475.316-.634.94,3.619,2.045,2.518,1.413,5.512,2.977,8.664-15.856-2.518-1.413ZM1250.939,506.991l-1.734-.79-.626-.466.317-.474-1.734-.94-.158.624-3.619-1.879.467-.79-.784-.308-.943-.474-.317.316-1.576-.948,2.835-5.338,1.101-2.037-.317-.158.634-1.255,2.993,1.571.467.316-.467,1.098.309.158-.309.624,2.827,1.414.158-.466,3.152,1.721,1.418.632-.475,1.098-3.619,6.751ZM1269.518,507.772l-.634-.316-4.562,8.165-1.259-.624.467-.79-.626-.316-2.202-1.256.309-.624-5.979-3.459-.475-.15,1.893-3.459,1.576-2.669.626-1.098,4.411,2.353-.475.79,2.677,1.571.317-.474.626.316.634-1.106,1.101.632,2.36,1.255-.784,1.256Z" fill="#b79474"/>
    <path d="M1272.511,503.374l-.317.632-2.677-1.413-1.417-.782.158-.316-.95-.474-1.41-.782-.475.624-13.851-7.533.467-.94-2.993-1.571-2.986-1.729.309-.624-2.669-1.413-7.088,12.713-.634-.316-1.568,2.827,3.936,2.045,1.259-2.045,1.568.948,1.259.624-1.259,2.195.475.158,1.576.948,2.043,1.098-.309.624.15.158,1.109.632.467.308.634-1.098.467.158.634.316,5.821,3.293.634.316.475.316-.634.94,3.619,2.045,2.518,1.413,5.512,2.977,8.664-15.856-2.518-1.413ZM1250.939,506.991l-1.734-.79-.626-.466.317-.474-1.734-.94-.158.624-3.619-1.879.467-.79-.784-.308-.943-.474-.317.316-1.576-.948,2.835-5.338,1.101-2.037-.317-.158.634-1.255,2.993,1.571.467.316-.467,1.098.309.158-.309.624,2.827,1.414.158-.466,3.152,1.721,1.418.632-.475,1.098-3.619,6.751ZM1269.518,507.772l-.634-.316-4.562,8.165-1.259-.624.467-.79-.626-.316-2.202-1.256.309-.624-5.979-3.459-.475-.15,1.893-3.459,1.576-2.669.626-1.098,4.411,2.353-.475.79,2.677,1.571.317-.474.626.316.634-1.106,1.101.632,2.36,1.255-.784,1.256Z" fill="none" stroke="#3a3430" stroke-width=".7"/>
  </g>
  <g>
    <path d="M1263.064,518.922l-.792,1.406-.626,1.263-.317.466-.158.158-1.734,3.301-.151.466-.158.316-.95,1.571,1.109.466-.634.948-.158.308-.467.79-.158.624-.475-.308-2.36-1.263-.475-.15-.467-.316.309-.79-10.073-5.488-10.073-5.338-.475-.316-.626,1.098-2.835-1.571,1.576-2.819.942.466,3.619-6.909,2.051,1.106.467-.79,1.576.79.158-.632.158-.158.158-.316.151-.15.317-.474-1.576-.782-1.726-.948.158-.466-3.627-1.887-5.354,9.578-.626-.316-1.576,2.511.317.158.626.474-5.346,9.728,3.619,2.045,1.259.624.317-.474,5.037,2.827-.158.474,2.518,1.413.317-.474,6.763,3.609-.309.474,2.677,1.413.158-.474,5.037,2.827,1.101.474.942.466-.317.632.317.158,2.677,1.413,2.202-3.924,1.417-2.669,2.209-3.925.158-.316,5.662-10.518-3.302-1.879ZM1236.138,523.313l-.158.158-.151.474-1.576,2.669-.158.466-3.31-1.721-2.043-1.105-.317-.15-.467-.316.626-1.098,1.734-3.459.942.474,1.101.624.633.316,3.461,1.887-.317.782ZM1243.067,532.259l-2.518-1.564-.317-.158h-.158l-2.835-1.571,1.734-2.985,1.101-2.037.317.158.475.15.467.474-.309.79.467.308,1.101.474.634.474h1.259l.317.15.309.316.634.316-2.677,4.706ZM1254.4,533.831l-1.259,2.669-.467.632-5.353-2.669-.158-.158-.158-.316v-.158l-.158-.316,1.418-2.511.317-.624.626-1.098.317.15.784.474-.309.632,2.36,1.413.475.308.309.158,1.259.79.317.15-.317.474Z" fill="#b79474"/>
    <path d="M1263.064,518.922l-.792,1.406-.626,1.263-.317.466-.158.158-1.734,3.301-.151.466-.158.316-.95,1.571,1.109.466-.634.948-.158.308-.467.79-.158.624-.475-.308-2.36-1.263-.475-.15-.467-.316.309-.79-10.073-5.488-10.073-5.338-.475-.316-.626,1.098-2.835-1.571,1.576-2.819.942.466,3.619-6.909,2.051,1.106.467-.79,1.576.79.158-.632.158-.158.158-.316.151-.15.317-.474-1.576-.782-1.726-.948.158-.466-3.627-1.887-5.354,9.578-.626-.316-1.576,2.511.317.158.626.474-5.346,9.728,3.619,2.045,1.259.624.317-.474,5.037,2.827-.158.474,2.518,1.413.317-.474,6.763,3.609-.309.474,2.677,1.413.158-.474,5.037,2.827,1.101.474.942.466-.317.632.317.158,2.677,1.413,2.202-3.924,1.417-2.669,2.209-3.925.158-.316,5.662-10.518-3.302-1.879ZM1236.138,523.313l-.158.158-.151.474-1.576,2.669-.158.466-3.31-1.721-2.043-1.105-.317-.15-.467-.316.626-1.098,1.734-3.459.942.474,1.101.624.633.316,3.461,1.887-.317.782ZM1243.067,532.259l-2.518-1.564-.317-.158h-.158l-2.835-1.571,1.734-2.985,1.101-2.037.317.158.475.15.467.474-.309.79.467.308,1.101.474.634.474h1.259l.317.15.309.316.634.316-2.677,4.706ZM1254.4,533.831l-1.259,2.669-.467.632-5.353-2.669-.158-.158-.158-.316v-.158l-.158-.316,1.418-2.511.317-.624.626-1.098.317.15.784.474-.309.632,2.36,1.413.475.308.309.158,1.259.79.317.15-.317.474Z" fill="none" stroke="#3a3430" stroke-width=".7"/>
  </g>
  <g>
    <polygon points="1373.895 474.65 1367.283 470.883 1366.339 472.767 1364.134 476.848 1366.968 478.26 1367.44 477.475 1369.96 478.889 1371.692 479.83 1372.951 477.633 1372.321 477.319 1373.895 474.65" fill="#b79474"/>
    <polygon points="1373.895 474.65 1367.283 470.883 1366.339 472.767 1364.134 476.848 1366.968 478.26 1367.44 477.475 1369.96 478.889 1371.692 479.83 1372.951 477.633 1372.321 477.319 1373.895 474.65" fill="none" stroke="#3a3430" stroke-width=".7"/>
  </g>
  <g>
    <polygon points="1371.061 481.244 1370.589 481.087 1370.117 481.244 1367.756 479.987 1368.385 479.045 1366.968 478.26 1364.134 476.848 1363.505 477.947 1362.875 478.732 1362.088 479.987 1362.56 481.4 1363.505 481.871 1364.292 482.499 1369.33 485.325 1370.904 482.499 1371.061 482.342 1371.219 482.029 1371.219 481.557 1371.061 481.244" fill="#b79474"/>
    <polygon points="1371.061 481.244 1370.589 481.087 1370.117 481.244 1367.756 479.987 1368.385 479.045 1366.968 478.26 1364.134 476.848 1363.505 477.947 1362.875 478.732 1362.088 479.987 1362.56 481.4 1363.505 481.871 1364.292 482.499 1369.33 485.325 1370.904 482.499 1371.061 482.342 1371.219 482.029 1371.219 481.557 1371.061 481.244" fill="none" stroke="#3a3430" stroke-width=".7"/>
  </g>
  <g>
    <polygon points="1377.202 483.127 1377.202 482.813 1376.099 482.029 1375.784 482.185 1373.58 480.929 1371.848 483.598 1371.376 483.284 1369.96 485.796 1373.738 487.994 1373.895 487.522 1377.516 489.563 1380.193 484.854 1377.202 483.127" fill="#b79474"/>
    <polygon points="1377.202 483.127 1377.202 482.813 1376.099 482.029 1375.784 482.185 1373.58 480.929 1371.848 483.598 1371.376 483.284 1369.96 485.796 1373.738 487.994 1373.895 487.522 1377.516 489.563 1380.193 484.854 1377.202 483.127" fill="none" stroke="#3a3430" stroke-width=".7"/>
  </g>
  <g>
    <polygon points="1325.091 467.273 1321.942 465.546 1321.942 465.703 1314.858 461.935 1310.292 459.423 1310.449 458.952 1307.3 457.382 1305.254 461.15 1303.837 463.819 1302.735 465.859 1306.199 467.586 1307.773 464.446 1308.56 463.034 1309.977 463.819 1311.866 464.761 1319.581 468.842 1316.432 474.493 1315.959 475.435 1315.802 475.592 1319.423 477.475 1319.737 476.848 1320.84 474.964 1321.469 473.865 1323.044 470.726 1323.359 470.883 1323.989 469.627 1323.673 469.627 1325.091 467.273" fill="#b79474"/>
    <polygon points="1325.091 467.273 1321.942 465.546 1321.942 465.703 1314.858 461.935 1310.292 459.423 1310.449 458.952 1307.3 457.382 1305.254 461.15 1303.837 463.819 1302.735 465.859 1306.199 467.586 1307.773 464.446 1308.56 463.034 1309.977 463.819 1311.866 464.761 1319.581 468.842 1316.432 474.493 1315.959 475.435 1315.802 475.592 1319.423 477.475 1319.737 476.848 1320.84 474.964 1321.469 473.865 1323.044 470.726 1323.359 470.883 1323.989 469.627 1323.673 469.627 1325.091 467.273" fill="none" stroke="#3a3430" stroke-width=".7"/>
  </g>
  <g>
    <polygon points="1325.091 467.273 1321.942 465.546 1321.942 465.703 1314.858 461.935 1313.126 460.836 1313.126 465.388 1319.581 468.842 1316.432 474.493 1315.959 475.435 1315.802 475.592 1319.423 477.475 1319.737 476.848 1320.84 474.964 1321.469 473.865 1323.044 470.726 1323.359 470.883 1323.989 469.627 1323.673 469.627 1325.091 467.273" fill="#b79474"/>
    <polygon points="1325.091 467.273 1321.942 465.546 1321.942 465.703 1314.858 461.935 1313.126 460.836 1313.126 465.388 1319.581 468.842 1316.432 474.493 1315.959 475.435 1315.802 475.592 1319.423 477.475 1319.737 476.848 1320.84 474.964 1321.469 473.865 1323.044 470.726 1323.359 470.883 1323.989 469.627 1323.673 469.627 1325.091 467.273" fill="none" stroke="#3a3430" stroke-width=".7"/>
  </g>
  <g>
    <polygon points="1417.663 472.453 1415.301 471.197 1415.143 471.353 1408.846 467.9 1409.16 467.115 1406.484 465.703 1406.012 466.644 1404.595 465.859 1404.123 466.801 1402.233 465.703 1400.502 464.761 1400.974 463.819 1399.715 463.191 1400.345 461.935 1397.668 460.522 1397.196 461.307 1392.473 458.638 1392.945 457.854 1391.056 456.754 1391.214 456.441 1387.592 454.4 1387.278 455.027 1385.546 453.929 1385.86 453.301 1378.776 449.22 1377.202 452.045 1376.729 452.045 1374.84 455.342 1374.84 456.441 1373.423 458.952 1380.193 462.249 1380.035 462.877 1382.082 463.819 1381.137 465.703 1384.758 467.9 1388.694 460.993 1389.009 460.208 1390.741 461.15 1390.426 461.935 1390.898 462.092 1395.464 464.604 1394.834 465.546 1397.51 467.115 1397.825 466.488 1398.297 466.801 1398.612 466.958 1397.983 468.214 1400.187 469.313 1402.549 470.726 1403.178 469.627 1403.651 469.941 1403.965 470.098 1403.808 470.568 1406.484 471.982 1406.956 471.04 1407.272 471.197 1412.467 474.022 1411.995 474.807 1409.476 479.36 1408.688 478.889 1407.114 481.557 1408.373 482.342 1406.642 485.325 1405.382 487.522 1408.846 487.522 1409.318 486.738 1411.05 483.755 1412.152 484.383 1413.569 481.714 1412.782 481.244 1415.301 476.534 1415.615 476.691 1416.875 474.337 1416.718 474.18 1417.663 472.453" fill="#b79474"/>
    <polygon points="1417.663 472.453 1415.301 471.197 1415.143 471.353 1408.846 467.9 1409.16 467.115 1406.484 465.703 1406.012 466.644 1404.595 465.859 1404.123 466.801 1402.233 465.703 1400.502 464.761 1400.974 463.819 1399.715 463.191 1400.345 461.935 1397.668 460.522 1397.196 461.307 1392.473 458.638 1392.945 457.854 1391.056 456.754 1391.214 456.441 1387.592 454.4 1387.278 455.027 1385.546 453.929 1385.86 453.301 1378.776 449.22 1377.202 452.045 1376.729 452.045 1374.84 455.342 1374.84 456.441 1373.423 458.952 1380.193 462.249 1380.035 462.877 1382.082 463.819 1381.137 465.703 1384.758 467.9 1388.694 460.993 1389.009 460.208 1390.741 461.15 1390.426 461.935 1390.898 462.092 1395.464 464.604 1394.834 465.546 1397.51 467.115 1397.825 466.488 1398.297 466.801 1398.612 466.958 1397.983 468.214 1400.187 469.313 1402.549 470.726 1403.178 469.627 1403.651 469.941 1403.965 470.098 1403.808 470.568 1406.484 471.982 1406.956 471.04 1407.272 471.197 1412.467 474.022 1411.995 474.807 1409.476 479.36 1408.688 478.889 1407.114 481.557 1408.373 482.342 1406.642 485.325 1405.382 487.522 1408.846 487.522 1409.318 486.738 1411.05 483.755 1412.152 484.383 1413.569 481.714 1412.782 481.244 1415.301 476.534 1415.615 476.691 1416.875 474.337 1416.718 474.18 1417.663 472.453" fill="none" stroke="#3a3430" stroke-width=".7"/>
  </g>
  <g>
    <polygon points="1375.312 461.621 1375.784 460.836 1373.58 459.581 1371.848 462.877 1371.376 462.563 1369.802 465.231 1368.7 467.115 1369.172 467.429 1367.44 470.412 1369.802 471.825 1370.274 471.04 1372.951 472.61 1374.367 469.941 1373.738 469.47 1374.683 467.743 1376.099 465.388 1376.415 465.703 1377.989 463.034 1375.312 461.621" fill="#b79474"/>
    <polygon points="1375.312 461.621 1375.784 460.836 1373.58 459.581 1371.848 462.877 1371.376 462.563 1369.802 465.231 1368.7 467.115 1369.172 467.429 1367.44 470.412 1369.802 471.825 1370.274 471.04 1372.951 472.61 1374.367 469.941 1373.738 469.47 1374.683 467.743 1376.099 465.388 1376.415 465.703 1377.989 463.034 1375.312 461.621" fill="none" stroke="#3a3430" stroke-width=".7"/>
  </g>
  <g>
    <polygon points="1307.615 490.976 1301.003 502.593 1299.271 501.65 1291.557 497.412 1290.612 496.941 1295.65 487.209 1295.965 486.738 1292.816 484.854 1290.14 489.877 1289.51 490.819 1285.574 498.355 1284.157 501.18 1288.409 503.377 1296.28 507.616 1298.642 508.872 1298.327 509.342 1301.476 510.912 1301.791 510.442 1310.134 494.901 1309.819 494.586 1309.977 494.43 1310.292 493.801 1310.292 493.645 1310.922 492.546 1307.615 490.976" fill="#b79474"/>
    <polygon points="1307.615 490.976 1301.003 502.593 1299.271 501.65 1291.557 497.412 1290.612 496.941 1295.65 487.209 1295.965 486.738 1292.816 484.854 1290.14 489.877 1289.51 490.819 1285.574 498.355 1284.157 501.18 1288.409 503.377 1296.28 507.616 1298.642 508.872 1298.327 509.342 1301.476 510.912 1301.791 510.442 1310.134 494.901 1309.819 494.586 1309.977 494.43 1310.292 493.801 1310.292 493.645 1310.922 492.546 1307.615 490.976" fill="none" stroke="#3a3430" stroke-width=".7"/>
  </g>
  <g>
    <polygon points="1283.528 485.953 1282.583 487.679 1277.073 484.54 1277.546 483.598 1277.86 483.127 1277.073 482.499 1275.342 481.714 1272.35 487.366 1269.831 485.953 1270.146 485.639 1269.044 485.011 1268.729 485.482 1263.219 482.342 1263.534 482.029 1262.432 481.4 1262.274 481.714 1260.543 480.772 1259.283 482.97 1258.811 482.656 1258.024 482.185 1263.848 471.668 1261.33 470.255 1261.015 470.098 1255.347 480.459 1254.875 481.244 1251.569 479.517 1252.04 478.575 1254.56 474.18 1257.708 468.371 1255.977 467.429 1254.56 467.429 1247.633 480.459 1257.237 485.796 1269.988 492.86 1269.831 493.331 1272.507 494.743 1272.665 494.273 1275.342 495.686 1276.128 496.156 1276.286 495.686 1276.758 495.843 1276.286 496.785 1278.49 498.04 1278.962 497.098 1279.434 497.412 1283.843 488.779 1284 488.307 1284.473 487.366 1284.787 486.581 1283.528 485.953" fill="#b79474"/>
    <polygon points="1283.528 485.953 1282.583 487.679 1277.073 484.54 1277.546 483.598 1277.86 483.127 1277.073 482.499 1275.342 481.714 1272.35 487.366 1269.831 485.953 1270.146 485.639 1269.044 485.011 1268.729 485.482 1263.219 482.342 1263.534 482.029 1262.432 481.4 1262.274 481.714 1260.543 480.772 1259.283 482.97 1258.811 482.656 1258.024 482.185 1263.848 471.668 1261.33 470.255 1261.015 470.098 1255.347 480.459 1254.875 481.244 1251.569 479.517 1252.04 478.575 1254.56 474.18 1257.708 468.371 1255.977 467.429 1254.56 467.429 1247.633 480.459 1257.237 485.796 1269.988 492.86 1269.831 493.331 1272.507 494.743 1272.665 494.273 1275.342 495.686 1276.128 496.156 1276.286 495.686 1276.758 495.843 1276.286 496.785 1278.49 498.04 1278.962 497.098 1279.434 497.412 1283.843 488.779 1284 488.307 1284.473 487.366 1284.787 486.581 1283.528 485.953" fill="none" stroke="#3a3430" stroke-width=".7"/>
  </g>
  <g>
    <path d="M1331.073,500.944l-.157.313-2.204-1.098v.471l-4.566-2.511-.473-.157-.472-.314-.472-.157.157-.313-.157-.157-2.834-1.57-1.417,2.512.158.157-4.094,7.535-4.723,9.497,3.306,1.648,8.501,4.867,5.195,2.826,9.289-16.955,1.574-2.982-6.612-3.61ZM1332.49,506.988l-4.408,7.692-2.677,4.709-1.889-1.098-2.992-1.57,1.102-2.198-2.834-1.57-.787,1.255-3.306-1.883,2.046-3.611,2.991-5.494,1.574-2.668.787.314,2.677,1.57,3.463,1.884.945.628.473-.785.944.314.158-.314,1.89.942-.945,1.413.787.471Z" fill="#b79474"/>
    <path d="M1331.073,500.944l-.157.313-2.204-1.098v.471l-4.566-2.511-.473-.157-.472-.314-.472-.157.157-.313-.157-.157-2.834-1.57-1.417,2.512.158.157-4.094,7.535-4.723,9.497,3.306,1.648,8.501,4.867,5.195,2.826,9.289-16.955,1.574-2.982-6.612-3.61ZM1332.49,506.988l-4.408,7.692-2.677,4.709-1.889-1.098-2.992-1.57,1.102-2.198-2.834-1.57-.787,1.255-3.306-1.883,2.046-3.611,2.991-5.494,1.574-2.668.787.314,2.677,1.57,3.463,1.884.945.628.473-.785.944.314.158-.314,1.89.942-.945,1.413.787.471Z" fill="none" stroke="#3a3430" stroke-width=".7"/>
  </g>
  <g>
    <polygon points="1324.933 467.429 1317.062 467.429 1319.581 468.842 1316.432 474.493 1315.959 475.435 1315.802 475.592 1319.423 477.475 1319.737 476.848 1320.84 474.964 1321.469 473.865 1323.044 470.726 1323.359 470.883 1323.989 469.627 1323.673 469.627 1324.933 467.429" fill="#b79474"/>
    <polygon points="1324.933 467.429 1317.062 467.429 1319.581 468.842 1316.432 474.493 1315.959 475.435 1315.802 475.592 1319.423 477.475 1319.737 476.848 1320.84 474.964 1321.469 473.865 1323.044 470.726 1323.359 470.883 1323.989 469.627 1323.673 469.627 1324.933 467.429" fill="none" stroke="#3a3430" stroke-width=".7"/>
  </g>
  <g>
    <polygon points="1417.663 472.453 1415.301 471.197 1415.143 471.353 1408.846 467.9 1409.004 467.429 1398.297 467.429 1397.983 468.214 1400.187 469.313 1402.549 470.726 1403.178 469.627 1403.651 469.941 1403.965 470.098 1403.808 470.568 1406.484 471.982 1406.956 471.04 1407.272 471.197 1412.467 474.022 1411.995 474.807 1409.476 479.36 1408.688 478.889 1407.114 481.557 1408.373 482.342 1406.642 485.325 1405.225 487.994 1404.123 487.366 1402.549 490.034 1403.336 490.505 1398.141 500.081 1400.502 501.337 1401.289 499.924 1402.549 500.552 1403.808 498.197 1403.493 498.04 1406.799 492.389 1407.586 492.86 1409.004 490.034 1407.901 489.406 1409.318 486.738 1411.05 483.755 1412.152 484.383 1413.569 481.714 1412.782 481.244 1415.301 476.534 1415.615 476.691 1416.875 474.337 1416.718 474.18 1417.663 472.453" fill="#b79474"/>
    <polygon points="1417.663 472.453 1415.301 471.197 1415.143 471.353 1408.846 467.9 1409.004 467.429 1398.297 467.429 1397.983 468.214 1400.187 469.313 1402.549 470.726 1403.178 469.627 1403.651 469.941 1403.965 470.098 1403.808 470.568 1406.484 471.982 1406.956 471.04 1407.272 471.197 1412.467 474.022 1411.995 474.807 1409.476 479.36 1408.688 478.889 1407.114 481.557 1408.373 482.342 1406.642 485.325 1405.225 487.994 1404.123 487.366 1402.549 490.034 1403.336 490.505 1398.141 500.081 1400.502 501.337 1401.289 499.924 1402.549 500.552 1403.808 498.197 1403.493 498.04 1406.799 492.389 1407.586 492.86 1409.004 490.034 1407.901 489.406 1409.318 486.738 1411.05 483.755 1412.152 484.383 1413.569 481.714 1412.782 481.244 1415.301 476.534 1415.615 476.691 1416.875 474.337 1416.718 474.18 1417.663 472.453" fill="none" stroke="#3a3430" stroke-width=".7"/>
  </g>
  <g>
    <polygon points="1398.77 493.488 1398.928 493.174 1398.612 493.017 1396.251 491.604 1393.574 490.034 1393.102 490.662 1392.315 490.034 1392.158 490.034 1391.37 491.133 1391.37 491.29 1388.852 489.877 1388.852 489.249 1387.907 488.779 1387.435 489.092 1383.814 487.209 1383.971 487.052 1383.027 486.424 1380.193 484.854 1377.516 489.563 1379.406 490.662 1378.933 491.29 1379.878 491.761 1380.823 492.389 1381.294 491.604 1386.018 494.273 1385.86 494.586 1388.222 496 1387.907 496.628 1388.852 497.098 1390.111 495.058 1392.473 496.47 1392.787 496 1397.825 498.982 1400.345 494.43 1398.77 493.488" fill="#b79474"/>
    <polygon points="1398.77 493.488 1398.928 493.174 1398.612 493.017 1396.251 491.604 1393.574 490.034 1393.102 490.662 1392.315 490.034 1392.158 490.034 1391.37 491.133 1391.37 491.29 1388.852 489.877 1388.852 489.249 1387.907 488.779 1387.435 489.092 1383.814 487.209 1383.971 487.052 1383.027 486.424 1380.193 484.854 1377.516 489.563 1379.406 490.662 1378.933 491.29 1379.878 491.761 1380.823 492.389 1381.294 491.604 1386.018 494.273 1385.86 494.586 1388.222 496 1387.907 496.628 1388.852 497.098 1390.111 495.058 1392.473 496.47 1392.787 496 1397.825 498.982 1400.345 494.43 1398.77 493.488" fill="none" stroke="#3a3430" stroke-width=".7"/>
  </g>
  <g>
    <polygon points="1194.892 498.668 1191.901 497.098 1191.271 496.628 1190.641 497.883 1189.539 499.924 1190.012 500.238 1182.612 513.581 1181.038 512.639 1178.991 511.697 1175.213 518.604 1171.907 527.238 1172.694 527.552 1174.425 528.023 1177.102 520.803 1178.991 521.587 1180.409 519.233 1179.778 519.076 1181.668 515.622 1184.816 517.349 1193.633 501.65 1193.318 501.493 1194.892 498.668" fill="#b79474"/>
    <polygon points="1194.892 498.668 1191.901 497.098 1191.271 496.628 1190.641 497.883 1189.539 499.924 1190.012 500.238 1182.612 513.581 1181.038 512.639 1178.991 511.697 1175.213 518.604 1171.907 527.238 1172.694 527.552 1174.425 528.023 1177.102 520.803 1178.991 521.587 1180.409 519.233 1179.778 519.076 1181.668 515.622 1184.816 517.349 1193.633 501.65 1193.318 501.493 1194.892 498.668" fill="none" stroke="#3a3430" stroke-width=".7"/>
  </g>
  <g>
    <polygon points="1169.702 511.069 1180.093 492.389 1180.723 490.976 1177.26 489.249 1176.629 490.348 1176 491.604 1176.315 491.918 1175.685 493.017 1175.213 492.86 1165.137 511.227 1165.766 511.541 1165.61 512.011 1164.822 511.541 1164.035 512.796 1162.775 514.994 1163.562 515.465 1162.933 516.721 1162.618 516.564 1160.099 521.273 1160.256 521.43 1159.627 522.529 1163.405 524.57 1164.035 523.314 1163.562 523 1166.082 518.604 1166.554 518.918 1167.498 517.192 1168.286 517.663 1167.971 518.291 1169.86 519.233 1170.018 518.918 1171.12 519.546 1170.962 519.861 1171.592 520.331 1171.434 520.645 1171.12 520.488 1168.601 525.355 1168.443 526.14 1171.434 527.081 1171.749 525.983 1170.805 525.825 1170.647 525.041 1171.907 522.529 1171.749 522.215 1172.537 521.116 1172.379 520.959 1173.638 518.291 1171.434 516.878 1168.915 515.622 1168.128 516.878 1167.656 516.564 1166.869 516.249 1167.656 514.68 1169.702 511.069" fill="#b79474"/>
    <polygon points="1169.702 511.069 1180.093 492.389 1180.723 490.976 1177.26 489.249 1176.629 490.348 1176 491.604 1176.315 491.918 1175.685 493.017 1175.213 492.86 1165.137 511.227 1165.766 511.541 1165.61 512.011 1164.822 511.541 1164.035 512.796 1162.775 514.994 1163.562 515.465 1162.933 516.721 1162.618 516.564 1160.099 521.273 1160.256 521.43 1159.627 522.529 1163.405 524.57 1164.035 523.314 1163.562 523 1166.082 518.604 1166.554 518.918 1167.498 517.192 1168.286 517.663 1167.971 518.291 1169.86 519.233 1170.018 518.918 1171.12 519.546 1170.962 519.861 1171.592 520.331 1171.434 520.645 1171.12 520.488 1168.601 525.355 1168.443 526.14 1171.434 527.081 1171.749 525.983 1170.805 525.825 1170.647 525.041 1171.907 522.529 1171.749 522.215 1172.537 521.116 1172.379 520.959 1173.638 518.291 1171.434 516.878 1168.915 515.622 1168.128 516.878 1167.656 516.564 1166.869 516.249 1167.656 514.68 1169.702 511.069" fill="none" stroke="#3a3430" stroke-width=".7"/>
  </g>
  <g>
    <path d="M1189.386,469.469l-2.835,5.338.158.466-7.872,13.503.151.158-.626,1.098,3.152,1.571.467-1.098,1.734.94-.317.474,2.36,1.255.158-.158,3.31,1.729-.158.308,3.777,1.729-.158.316.158.158-.158.466,2.993,1.571,7.238,4.082-.309.474,16.052,8.947.158.158,11.649-20.878-41.086-22.607ZM1195.836,489.247l-2.202-1.098.158-.474-6.145-3.451-.309.79-2.518-1.414.309-.632.317.158,3.778-6.751-.942-.624,1.101-1.729.158-.474,11.491,6.436-.317.474-4.245,7.691-.634,1.098ZM1221.344,495.059l.158-.474,1.41.79-6.454,11.458-2.043-1.256v-.158l-17.161-9.105.475-.79.309-.782-.467-.316,4.094-8.789,1.259-.782,4.403,2.511.95-1.571-5.829-3.143.784-1.564,17.636,9.728.784-1.255,3.31,1.887.317-.474.942.474-1.576,2.977-7.238-4.082-.317.316-4.411-2.353-.784,1.571,9.448,5.18Z" fill="#b79474"/>
    <path d="M1189.386,469.469l-2.835,5.338.158.466-7.872,13.503.151.158-.626,1.098,3.152,1.571.467-1.098,1.734.94-.317.474,2.36,1.255.158-.158,3.31,1.729-.158.308,3.777,1.729-.158.316.158.158-.158.466,2.993,1.571,7.238,4.082-.309.474,16.052,8.947.158.158,11.649-20.878-41.086-22.607ZM1195.836,489.247l-2.202-1.098.158-.474-6.145-3.451-.309.79-2.518-1.414.309-.632.317.158,3.778-6.751-.942-.624,1.101-1.729.158-.474,11.491,6.436-.317.474-4.245,7.691-.634,1.098ZM1221.344,495.059l.158-.474,1.41.79-6.454,11.458-2.043-1.256v-.158l-17.161-9.105.475-.79.309-.782-.467-.316,4.094-8.789,1.259-.782,4.403,2.511.95-1.571-5.829-3.143.784-1.564,17.636,9.728.784-1.255,3.31,1.887.317-.474.942.474-1.576,2.977-7.238-4.082-.317.316-4.411-2.353-.784,1.571,9.448,5.18Z" fill="none" stroke="#3a3430" stroke-width=".7"/>
  </g>
  <path d="M1442.227,485.606l-16.96-9.27-6.92,12.72-.47-.31-1.73,3.46.32.15-8.17,14.93,3.46,1.88.31-.47.94.47,2.83,1.57,2.98,1.57-.62,1.1,1.25.63.63-1.25.63.47-.79,1.57,1.1.63,2.2,1.1.79-1.57-.63-.32,1.89-3.14.47.16.94-1.42-.47-.31,5.34-9.74,3.77,2.04.47-.94,2.04,1.1.16-.47.32-.48,5.65-10.36,1.89-3.62-3.62-1.88ZM1436.288,493.726l-1.42,2.67-.31.63-7.86-4.24-.94,1.57-.63,1.26,1.1.63-.47.94-.47-.31-1.26,2.2-.47.47.16.31-.79,1.57h-.31l-.16.32v.47l-.78,1.25-.16.16-.32.47v.32l-.31.63-.94,2.04-.47-.16-1.73-.94v-.47l-.63-.32-.47-.31-.32.16-1.57-.79-.63-.47-.78-.32-.32-.31,2.36-4.24,2.04-3.77,1.26-2.36.47.32,1.89-3.46-.32-.16.47-.94,4.72-8.64.78.47,2.2,1.1,4.09,2.36,4.08,2.04,2.2,1.26.31.15.16.16-3.45,6.28Z" fill="#b79474" stroke="#3a3430" stroke-width=".7"/>
  <g>
    <polygon points="1228.426 418.138 1227.953 417.823 1227.639 416.882 1227.009 417.195 1226.852 416.882 1225.749 417.353 1225.591 416.725 1226.064 416.253 1225.749 415.783 1226.222 415.626 1226.852 414.684 1225.749 410.603 1224.804 410.446 1223.86 407.463 1223.073 407.463 1223.231 406.521 1222.758 406.364 1222.758 404.637 1223.073 404.324 1223.545 404.481 1224.804 404.324 1224.648 401.969 1222.444 401.969 1221.971 401.184 1220.396 401.027 1219.925 402.282 1219.295 402.439 1219.295 401.969 1217.877 401.969 1217.877 402.597 1217.405 402.754 1217.248 401.969 1216.776 401.969 1216.461 402.439 1216.146 402.282 1216.146 401.812 1214.729 401.497 1213.154 401.341 1212.997 401.812 1212.525 401.812 1212.525 401.184 1212.21 401.027 1211.58 401.341 1211.265 401.027 1211.423 400.712 1210.636 399.928 1210.321 399.457 1209.534 398.515 1208.904 398.515 1208.432 397.573 1208.117 397.73 1207.801 397.573 1207.959 396.945 1207.801 396.632 1207.172 396.632 1207.014 396.16 1207.33 395.847 1205.913 393.963 1206.858 393.335 1206.227 391.922 1204.653 392.55 1204.653 392.864 1204.023 393.178 1203.236 392.079 1202.764 391.922 1202.449 391.294 1201.032 392.393 1201.347 393.649 1201.662 393.492 1201.977 394.12 1199.93 395.375 1200.087 395.69 1199.3 396.16 1199.93 397.102 1202.764 395.69 1203.078 396.317 1202.922 396.474 1203.551 396.945 1204.338 397.887 1204.81 397.73 1204.968 398.201 1205.598 397.887 1205.913 398.515 1205.44 398.986 1205.755 399.3 1205.44 399.614 1205.755 400.085 1206.227 400.085 1206.385 400.556 1206.542 400.87 1205.598 401.969 1205.913 402.282 1205.598 402.597 1206.385 403.381 1206.858 403.067 1207.172 403.381 1208.274 402.597 1210.006 404.009 1210.321 403.539 1210.793 403.852 1211.108 403.381 1211.58 403.539 1211.58 404.166 1212.053 404.166 1211.895 404.481 1215.359 405.266 1215.359 405.108 1215.988 405.108 1216.146 404.481 1216.776 404.637 1216.776 405.579 1217.248 405.579 1217.248 405.893 1218.98 406.207 1218.98 406.05 1219.452 405.893 1219.925 406.207 1219.925 406.364 1220.869 406.521 1220.869 406.835 1220.396 406.992 1220.554 407.463 1221.184 407.463 1219.925 409.504 1220.239 409.504 1220.239 410.289 1220.554 410.131 1220.712 411.073 1220.869 411.073 1221.184 411.701 1221.499 412.643 1221.184 412.643 1221.499 413.428 1221.341 413.428 1221.656 414.213 1221.341 414.37 1221.813 415.155 1221.499 415.155 1222.286 415.783 1223.073 415.312 1223.545 416.097 1223.703 416.568 1223.703 417.667 1221.813 418.295 1221.656 418.608 1221.026 418.765 1219.609 419.865 1219.925 420.492 1218.98 420.963 1219.137 421.591 1218.822 421.748 1218.508 422.062 1218.193 421.748 1217.563 422.219 1217.09 422.219 1215.044 423.318 1214.257 422.219 1214.099 421.748 1213.154 420.649 1212.84 420.963 1212.525 420.335 1213.312 419.865 1213.154 419.55 1212.682 419.707 1212.525 419.55 1212.84 419.237 1211.58 417.823 1210.636 418.452 1210.793 418.765 1210.478 419.237 1210.006 419.237 1209.534 419.707 1210.793 421.277 1215.201 427.085 1215.988 426.614 1215.831 426.3 1215.988 425.987 1216.618 425.83 1217.72 427.242 1218.664 426.614 1218.035 425.83 1218.193 425.672 1217.72 425.045 1219.767 423.632 1219.609 423.318 1220.239 423.004 1220.396 422.847 1221.341 422.533 1221.499 422.69 1222.916 421.748 1223.231 421.591 1224.018 421.12 1224.175 420.649 1225.12 420.178 1225.12 419.865 1225.435 419.55 1226.064 419.55 1226.064 419.865 1228.426 418.922 1228.268 418.452 1228.426 418.138" fill="#b79474"/>
    <polygon points="1228.426 418.138 1227.953 417.823 1227.639 416.882 1227.009 417.195 1226.852 416.882 1225.749 417.353 1225.591 416.725 1226.064 416.253 1225.749 415.783 1226.222 415.626 1226.852 414.684 1225.749 410.603 1224.804 410.446 1223.86 407.463 1223.073 407.463 1223.231 406.521 1222.758 406.364 1222.758 404.637 1223.073 404.324 1223.545 404.481 1224.804 404.324 1224.648 401.969 1222.444 401.969 1221.971 401.184 1220.396 401.027 1219.925 402.282 1219.295 402.439 1219.295 401.969 1217.877 401.969 1217.877 402.597 1217.405 402.754 1217.248 401.969 1216.776 401.969 1216.461 402.439 1216.146 402.282 1216.146 401.812 1214.729 401.497 1213.154 401.341 1212.997 401.812 1212.525 401.812 1212.525 401.184 1212.21 401.027 1211.58 401.341 1211.265 401.027 1211.423 400.712 1210.636 399.928 1210.321 399.457 1209.534 398.515 1208.904 398.515 1208.432 397.573 1208.117 397.73 1207.801 397.573 1207.959 396.945 1207.801 396.632 1207.172 396.632 1207.014 396.16 1207.33 395.847 1205.913 393.963 1206.858 393.335 1206.227 391.922 1204.653 392.55 1204.653 392.864 1204.023 393.178 1203.236 392.079 1202.764 391.922 1202.449 391.294 1201.032 392.393 1201.347 393.649 1201.662 393.492 1201.977 394.12 1199.93 395.375 1200.087 395.69 1199.3 396.16 1199.93 397.102 1202.764 395.69 1203.078 396.317 1202.922 396.474 1203.551 396.945 1204.338 397.887 1204.81 397.73 1204.968 398.201 1205.598 397.887 1205.913 398.515 1205.44 398.986 1205.755 399.3 1205.44 399.614 1205.755 400.085 1206.227 400.085 1206.385 400.556 1206.542 400.87 1205.598 401.969 1205.913 402.282 1205.598 402.597 1206.385 403.381 1206.858 403.067 1207.172 403.381 1208.274 402.597 1210.006 404.009 1210.321 403.539 1210.793 403.852 1211.108 403.381 1211.58 403.539 1211.58 404.166 1212.053 404.166 1211.895 404.481 1215.359 405.266 1215.359 405.108 1215.988 405.108 1216.146 404.481 1216.776 404.637 1216.776 405.579 1217.248 405.579 1217.248 405.893 1218.98 406.207 1218.98 406.05 1219.452 405.893 1219.925 406.207 1219.925 406.364 1220.869 406.521 1220.869 406.835 1220.396 406.992 1220.554 407.463 1221.184 407.463 1219.925 409.504 1220.239 409.504 1220.239 410.289 1220.554 410.131 1220.712 411.073 1220.869 411.073 1221.184 411.701 1221.499 412.643 1221.184 412.643 1221.499 413.428 1221.341 413.428 1221.656 414.213 1221.341 414.37 1221.813 415.155 1221.499 415.155 1222.286 415.783 1223.073 415.312 1223.545 416.097 1223.703 416.568 1223.703 417.667 1221.813 418.295 1221.656 418.608 1221.026 418.765 1219.609 419.865 1219.925 420.492 1218.98 420.963 1219.137 421.591 1218.822 421.748 1218.508 422.062 1218.193 421.748 1217.563 422.219 1217.09 422.219 1215.044 423.318 1214.257 422.219 1214.099 421.748 1213.154 420.649 1212.84 420.963 1212.525 420.335 1213.312 419.865 1213.154 419.55 1212.682 419.707 1212.525 419.55 1212.84 419.237 1211.58 417.823 1210.636 418.452 1210.793 418.765 1210.478 419.237 1210.006 419.237 1209.534 419.707 1210.793 421.277 1215.201 427.085 1215.988 426.614 1215.831 426.3 1215.988 425.987 1216.618 425.83 1217.72 427.242 1218.664 426.614 1218.035 425.83 1218.193 425.672 1217.72 425.045 1219.767 423.632 1219.609 423.318 1220.239 423.004 1220.396 422.847 1221.341 422.533 1221.499 422.69 1222.916 421.748 1223.231 421.591 1224.018 421.12 1224.175 420.649 1225.12 420.178 1225.12 419.865 1225.435 419.55 1226.064 419.55 1226.064 419.865 1228.426 418.922 1228.268 418.452 1228.426 418.138" fill="none" stroke="#3a3430" stroke-width=".7"/>
  </g>
  <g>
    <polygon points="1246.688 419.237 1245.744 419.237 1245.271 418.765 1245.113 418.765 1245.113 418.452 1243.382 417.667 1243.067 417.98 1242.595 417.667 1241.965 417.667 1241.808 417.353 1242.122 416.725 1241.965 416.411 1242.122 416.097 1241.178 415.312 1241.178 414.841 1240.548 414.841 1240.076 414.213 1240.706 414.056 1240.548 412.957 1240.076 412.957 1240.076 412.173 1239.131 411.858 1238.816 412.329 1238.502 412.329 1238.186 412.015 1237.715 412.957 1237.872 413.428 1237.399 413.585 1237.085 413.585 1236.927 413.271 1236.298 413.585 1235.038 413.585 1235.038 413.899 1234.881 414.056 1234.566 414.213 1234.566 414.841 1233.936 414.998 1233.779 414.37 1233.149 414.684 1232.991 414.37 1231.889 414.841 1231.575 414.056 1232.834 412.329 1233.463 412.329 1233.779 411.544 1233.779 410.603 1233.307 410.603 1233.307 409.818 1232.991 409.818 1232.834 409.033 1232.676 409.033 1232.362 408.248 1232.519 408.248 1232.204 407.463 1232.676 407.463 1232.204 406.678 1232.519 406.521 1232.204 406.05 1232.047 405.736 1230.787 404.794 1230.472 403.539 1232.834 401.812 1232.834 401.497 1233.149 401.184 1232.676 400.556 1233.149 400.242 1233.779 400.556 1234.094 400.242 1234.408 400.399 1236.455 398.358 1236.298 398.044 1236.455 397.73 1235.983 397.102 1236.455 396.632 1237.085 397.102 1237.399 396.632 1237.557 396.789 1239.289 394.747 1240.548 395.062 1241.021 393.963 1240.076 393.492 1240.39 393.021 1240.548 393.021 1240.863 392.707 1240.39 392.079 1240.076 392.236 1239.603 391.451 1239.918 391.137 1239.289 390.195 1239.761 390.038 1239.289 389.253 1239.131 389.253 1238.816 388.782 1238.344 387.998 1237.872 388.155 1237.715 387.84 1236.298 388.782 1237.242 390.666 1236.612 391.608 1236.14 392.079 1235.668 393.021 1235.668 393.649 1235.195 394.434 1235.353 394.747 1235.195 395.219 1234.408 395.062 1234.251 395.219 1234.408 396.004 1234.094 396.317 1233.779 395.847 1232.676 396.632 1232.519 397.102 1231.889 397.73 1232.204 398.044 1232.047 398.515 1231.259 398.358 1231.102 398.515 1231.102 399.3 1230.787 399.457 1230.63 399.3 1229.528 399.928 1229.055 400.085 1228.268 400.712 1228.268 401.027 1227.796 401.341 1227.481 400.87 1226.536 401.184 1226.852 403.381 1227.166 403.381 1227.323 403.067 1227.953 403.067 1228.74 404.324 1228.268 404.951 1228.898 405.579 1228.898 405.893 1228.583 405.736 1226.536 406.207 1226.536 406.835 1226.064 406.992 1226.852 409.504 1227.639 409.346 1227.639 409.19 1227.953 409.19 1228.111 409.346 1228.583 411.701 1228.268 412.173 1228.898 413.899 1229.213 413.742 1229.371 414.684 1229.528 415.469 1230.158 415.312 1230.315 415.94 1230.158 416.097 1230.945 417.98 1231.259 417.823 1231.575 418.452 1232.204 418.138 1232.519 418.295 1234.251 417.667 1234.094 417.51 1234.566 417.195 1235.038 417.51 1235.51 417.353 1235.51 416.725 1235.825 416.725 1236.77 417.038 1237.085 417.51 1238.029 417.823 1238.659 417.667 1239.761 418.295 1239.446 418.765 1239.603 419.08 1240.234 419.08 1240.39 419.55 1240.076 419.707 1240.548 420.492 1241.178 420.492 1241.808 421.12 1241.335 421.434 1241.178 422.376 1241.65 422.376 1241.493 423.004 1242.28 423.318 1242.752 422.847 1243.225 423.004 1243.697 422.376 1243.539 421.905 1244.169 421.748 1244.642 421.905 1244.799 422.376 1245.744 422.062 1245.744 421.748 1246.058 421.434 1246.216 421.748 1246.531 421.905 1247.161 421.591 1246.688 419.237" fill="#b79474"/>
    <polygon points="1246.688 419.237 1245.744 419.237 1245.271 418.765 1245.113 418.765 1245.113 418.452 1243.382 417.667 1243.067 417.98 1242.595 417.667 1241.965 417.667 1241.808 417.353 1242.122 416.725 1241.965 416.411 1242.122 416.097 1241.178 415.312 1241.178 414.841 1240.548 414.841 1240.076 414.213 1240.706 414.056 1240.548 412.957 1240.076 412.957 1240.076 412.173 1239.131 411.858 1238.816 412.329 1238.502 412.329 1238.186 412.015 1237.715 412.957 1237.872 413.428 1237.399 413.585 1237.085 413.585 1236.927 413.271 1236.298 413.585 1235.038 413.585 1235.038 413.899 1234.881 414.056 1234.566 414.213 1234.566 414.841 1233.936 414.998 1233.779 414.37 1233.149 414.684 1232.991 414.37 1231.889 414.841 1231.575 414.056 1232.834 412.329 1233.463 412.329 1233.779 411.544 1233.779 410.603 1233.307 410.603 1233.307 409.818 1232.991 409.818 1232.834 409.033 1232.676 409.033 1232.362 408.248 1232.519 408.248 1232.204 407.463 1232.676 407.463 1232.204 406.678 1232.519 406.521 1232.204 406.05 1232.047 405.736 1230.787 404.794 1230.472 403.539 1232.834 401.812 1232.834 401.497 1233.149 401.184 1232.676 400.556 1233.149 400.242 1233.779 400.556 1234.094 400.242 1234.408 400.399 1236.455 398.358 1236.298 398.044 1236.455 397.73 1235.983 397.102 1236.455 396.632 1237.085 397.102 1237.399 396.632 1237.557 396.789 1239.289 394.747 1240.548 395.062 1241.021 393.963 1240.076 393.492 1240.39 393.021 1240.548 393.021 1240.863 392.707 1240.39 392.079 1240.076 392.236 1239.603 391.451 1239.918 391.137 1239.289 390.195 1239.761 390.038 1239.289 389.253 1239.131 389.253 1238.816 388.782 1238.344 387.998 1237.872 388.155 1237.715 387.84 1236.298 388.782 1237.242 390.666 1236.612 391.608 1236.14 392.079 1235.668 393.021 1235.668 393.649 1235.195 394.434 1235.353 394.747 1235.195 395.219 1234.408 395.062 1234.251 395.219 1234.408 396.004 1234.094 396.317 1233.779 395.847 1232.676 396.632 1232.519 397.102 1231.889 397.73 1232.204 398.044 1232.047 398.515 1231.259 398.358 1231.102 398.515 1231.102 399.3 1230.787 399.457 1230.63 399.3 1229.528 399.928 1229.055 400.085 1228.268 400.712 1228.268 401.027 1227.796 401.341 1227.481 400.87 1226.536 401.184 1226.852 403.381 1227.166 403.381 1227.323 403.067 1227.953 403.067 1228.74 404.324 1228.268 404.951 1228.898 405.579 1228.898 405.893 1228.583 405.736 1226.536 406.207 1226.536 406.835 1226.064 406.992 1226.852 409.504 1227.639 409.346 1227.639 409.19 1227.953 409.19 1228.111 409.346 1228.583 411.701 1228.268 412.173 1228.898 413.899 1229.213 413.742 1229.371 414.684 1229.528 415.469 1230.158 415.312 1230.315 415.94 1230.158 416.097 1230.945 417.98 1231.259 417.823 1231.575 418.452 1232.204 418.138 1232.519 418.295 1234.251 417.667 1234.094 417.51 1234.566 417.195 1235.038 417.51 1235.51 417.353 1235.51 416.725 1235.825 416.725 1236.77 417.038 1237.085 417.51 1238.029 417.823 1238.659 417.667 1239.761 418.295 1239.446 418.765 1239.603 419.08 1240.234 419.08 1240.39 419.55 1240.076 419.707 1240.548 420.492 1241.178 420.492 1241.808 421.12 1241.335 421.434 1241.178 422.376 1241.65 422.376 1241.493 423.004 1242.28 423.318 1242.752 422.847 1243.225 423.004 1243.697 422.376 1243.539 421.905 1244.169 421.748 1244.642 421.905 1244.799 422.376 1245.744 422.062 1245.744 421.748 1246.058 421.434 1246.216 421.748 1246.531 421.905 1247.161 421.591 1246.688 419.237" fill="none" stroke="#3a3430" stroke-width=".7"/>
  </g>
  <g>
    <path d="M1392.787,305.897l-2.204-.471v.314l-2.204-.471-16.688-2.983-.158.629-1.732-.314-2.362-.314-.63,3.297-1.89-.313-7.714-1.57-5.825,3.767,1.889,3.14,1.26-.629,6.454,9.89-.63.628,2.204,3.14.945-.785,6.455,10.047-.945.785,2.362,2.982,2.046-1.413,2.047,3.14,6.927,1.413-.315,1.413,1.26.314-1.102,5.808,5.038.942.63-3.61-.63-.314,1.889-9.419,2.204-10.047,1.102.157.945-4.709-.473-.157,1.732-10.047h.63l.473-2.198.314-1.413-3.306-.628ZM1364.449,317.671l-.63.471-.473.314-6.454-9.733.472-.314,1.102-.785,5.982,1.256,1.732.313-1.417,6.436-.315,2.041ZM1373.266,329.13l-.315,1.883-.945.471-6.454-9.733.944-.785,7.4,1.413.787.157-1.417,6.594ZM1384.286,333.84l-.63,2.511-5.825-1.256-.945-2.04.63-3.14,1.417-6.751.787.157,6.455,1.099-1.89,9.419ZM1389.166,314.845l-.787-.157-.472,3.14-.945-.156-.315,1.726-.472.471-.315.628-5.353-1.099-.787-.156-.157.471-4.88-.942-6.14-1.255.314-1.099,2.204-10.36,9.919,1.883-.315,1.413,2.362.471.472-1.57,4.251.941,2.677.471-1.26,5.18Z" fill="#b79474"/>
    <path d="M1392.787,305.897l-2.204-.471v.314l-2.204-.471-16.688-2.983-.158.629-1.732-.314-2.362-.314-.63,3.297-1.89-.313-7.714-1.57-5.825,3.767,1.889,3.14,1.26-.629,6.454,9.89-.63.628,2.204,3.14.945-.785,6.455,10.047-.945.785,2.362,2.982,2.046-1.413,2.047,3.14,6.927,1.413-.315,1.413,1.26.314-1.102,5.808,5.038.942.63-3.61-.63-.314,1.889-9.419,2.204-10.047,1.102.157.945-4.709-.473-.157,1.732-10.047h.63l.473-2.198.314-1.413-3.306-.628ZM1364.449,317.671l-.63.471-.473.314-6.454-9.733.472-.314,1.102-.785,5.982,1.256,1.732.313-1.417,6.436-.315,2.041ZM1373.266,329.13l-.315,1.883-.945.471-6.454-9.733.944-.785,7.4,1.413.787.157-1.417,6.594ZM1384.286,333.84l-.63,2.511-5.825-1.256-.945-2.04.63-3.14,1.417-6.751.787.157,6.455,1.099-1.89,9.419ZM1389.166,314.845l-.787-.157-.472,3.14-.945-.156-.315,1.726-.472.471-.315.628-5.353-1.099-.787-.156-.157.471-4.88-.942-6.14-1.255.314-1.099,2.204-10.36,9.919,1.883-.315,1.413,2.362.471.472-1.57,4.251.941,2.677.471-1.26,5.18Z" fill="none" stroke="#3a3430" stroke-width=".7"/>
  </g>
  <g>
    <path d="M1400.345,284.391l-2.519-.313-16.531-3.61.315-1.413.945-4.709v-1.726l-7.242.471-1.259.157-4.723.314-.158-.471h-1.574v-.314l-3.621.157.157.942-1.417-.157-.314,1.884-2.362-.471-1.26-.313-2.046-.471-.158-.471-1.732.157v.157l-5.353.471-.158-.628-2.518.313v.785l-2.361.785-2.205.785-1.417.471-.157-.471-3.464,1.099,2.204,6.593,3.778,11.146.787,2.669,5.038-1.57.314,4.081,8.187-.471.158-.628.314-.157.315.157.157-.471-.157-.156.63-2.826,3.778.628.473-2.668v-.628l12.909,2.511-.315,1.57,5.353.942.315-1.256,11.65,2.04.315-1.727,3.149.471.472-1.727,1.259.314.315-1.57.63-2.826h.473l.314-1.57-.787-.156,1.102-6.123ZM1361.301,280.78l-1.417,7.064-1.102,5.337-.158.628-9.603.314.158.471-2.047.157-.314-.628-3.464-10.204.472-.157-.157-.471-.787-2.198.314-.314.158-.471,2.677-.785.944-.314.315,1.727h2.677l-.157-2.04,5.037-.157.158,1.413h1.732v-1.57l1.102.157,1.574.313,2.205.471-.315,1.255ZM1366.496,277.327l3.778-.157,1.574-.157-.63,3.297-.472-.157-4.565-.942.314-1.883ZM1377.359,291.141l-.314,1.098-12.91-2.511.315-.942,1.417-7.221,6.769,1.57,5.51,1.256h.473l-1.26,6.751ZM1377.989,281.565l-1.26-.314-3.778-.784.63-3.454,3.464-.157,2.046-.157-1.102,4.867ZM1393.732,291.612l-.472,2.512-.315,1.413-11.335-2.355.314-1.256.315-1.727.787-4.867.315-1.57,10.39,2.198,1.102.157-1.102,5.494Z" fill="#b79474"/>
    <path d="M1400.345,284.391l-2.519-.313-16.531-3.61.315-1.413.945-4.709v-1.726l-7.242.471-1.259.157-4.723.314-.158-.471h-1.574v-.314l-3.621.157.157.942-1.417-.157-.314,1.884-2.362-.471-1.26-.313-2.046-.471-.158-.471-1.732.157v.157l-5.353.471-.158-.628-2.518.313v.785l-2.361.785-2.205.785-1.417.471-.157-.471-3.464,1.099,2.204,6.593,3.778,11.146.787,2.669,5.038-1.57.314,4.081,8.187-.471.158-.628.314-.157.315.157.157-.471-.157-.156.63-2.826,3.778.628.473-2.668v-.628l12.909,2.511-.315,1.57,5.353.942.315-1.256,11.65,2.04.315-1.727,3.149.471.472-1.727,1.259.314.315-1.57.63-2.826h.473l.314-1.57-.787-.156,1.102-6.123ZM1361.301,280.78l-1.417,7.064-1.102,5.337-.158.628-9.603.314.158.471-2.047.157-.314-.628-3.464-10.204.472-.157-.157-.471-.787-2.198.314-.314.158-.471,2.677-.785.944-.314.315,1.727h2.677l-.157-2.04,5.037-.157.158,1.413h1.732v-1.57l1.102.157,1.574.313,2.205.471-.315,1.255ZM1366.496,277.327l3.778-.157,1.574-.157-.63,3.297-.472-.157-4.565-.942.314-1.883ZM1377.359,291.141l-.314,1.098-12.91-2.511.315-.942,1.417-7.221,6.769,1.57,5.51,1.256h.473l-1.26,6.751ZM1377.989,281.565l-1.26-.314-3.778-.784.63-3.454,3.464-.157,2.046-.157-1.102,4.867ZM1393.732,291.612l-.472,2.512-.315,1.413-11.335-2.355.314-1.256.315-1.727.787-4.867.315-1.57,10.39,2.198,1.102.157-1.102,5.494Z" fill="none" stroke="#3a3430" stroke-width=".7"/>
  </g>
  <path d="M1224.411,524.491" fill="#405945"/>
  <g>
    <polygon points="1161.851 466.095 1162.007 465.781 1159.503 464.529 1159.503 464.842 1158.249 464.215 1156.997 466.564 1161.695 468.913 1162.947 466.564 1161.851 466.095" fill="#b79474"/>
    <polygon points="1161.851 466.095 1162.007 465.781 1159.503 464.529 1159.503 464.842 1158.249 464.215 1156.997 466.564 1161.695 468.913 1162.947 466.564 1161.851 466.095" fill="none" stroke="#fff"/>
  </g>
  <g>
    <polygon points="1172.186 452.628 1171.09 455.29 1171.716 455.603 1171.09 457.169 1170.15 456.856 1169.054 459.674 1171.873 460.771 1173.126 458.108 1172.499 457.796 1173.282 456.073 1174.065 456.386 1175.161 453.881 1172.186 452.628" fill="#b79474"/>
    <polygon points="1172.186 452.628 1171.09 455.29 1171.716 455.603 1171.09 457.169 1170.15 456.856 1169.054 459.674 1171.873 460.771 1173.126 458.108 1172.499 457.796 1173.282 456.073 1174.065 456.386 1175.161 453.881 1172.186 452.628" fill="none" stroke="#fff"/>
  </g>
  <g>
    <polygon points="1328.306 424.442 1324.705 431.175 1328.933 433.524 1332.534 426.791 1328.306 424.442" fill="#b79474"/>
    <polygon points="1328.306 424.442 1324.705 431.175 1328.933 433.524 1332.534 426.791 1328.306 424.442" fill="none" stroke="#fff"/>
  </g>
  <g>
    <polygon points="1238.424 563.807 1238.737 563.024 1234.352 560.675 1233.57 562.241 1231.064 566.938 1229.968 568.975 1229.811 569.287 1231.064 569.914 1234.352 571.636 1234.822 570.54 1237.797 572.263 1239.52 568.818 1241.399 565.372 1238.424 563.807" fill="#b79474"/>
    <polygon points="1238.424 563.807 1238.737 563.024 1234.352 560.675 1233.57 562.241 1231.064 566.938 1229.968 568.975 1229.811 569.287 1231.064 569.914 1234.352 571.636 1234.822 570.54 1237.797 572.263 1239.52 568.818 1241.399 565.372 1238.424 563.807" fill="none" stroke="#fff"/>
  </g>
  <g>
    <polygon points="1475.031 396.099 1475.658 394.533 1474.092 393.907 1472.212 393.124 1471.586 394.69 1471.9 394.846 1470.96 397.195 1470.334 396.882 1470.02 397.038 1469.707 397.665 1469.394 397.665 1468.298 400.64 1470.334 401.423 1470.177 401.736 1471.586 402.206 1471.743 401.893 1473.622 402.676 1474.718 399.857 1474.405 399.701 1474.875 398.918 1474.718 398.604 1473.778 398.291 1474.718 395.943 1475.031 396.099" fill="#b79474"/>
    <polygon points="1475.031 396.099 1475.658 394.533 1474.092 393.907 1472.212 393.124 1471.586 394.69 1471.9 394.846 1470.96 397.195 1470.334 396.882 1470.02 397.038 1469.707 397.665 1469.394 397.665 1468.298 400.64 1470.334 401.423 1470.177 401.736 1471.586 402.206 1471.743 401.893 1473.622 402.676 1474.718 399.857 1474.405 399.701 1474.875 398.918 1474.718 398.604 1473.778 398.291 1474.718 395.943 1475.031 396.099" fill="none" stroke="#fff"/>
  </g>
  <g>
    <polygon points="1346.314 468.287 1344.279 471.732 1350.855 475.49 1352.735 471.888 1346.314 468.287" fill="#b79474"/>
    <polygon points="1346.314 468.287 1344.279 471.732 1350.855 475.49 1352.735 471.888 1346.314 468.287" fill="none" stroke="#fff"/>
  </g>
  <g>
    <polygon points="1203.817 529.514 1198.493 526.695 1197.397 528.731 1195.831 527.791 1192.856 533.429 1193.483 533.898 1193.326 534.212 1194.892 534.995 1194.578 535.464 1200.372 538.596 1201.782 535.777 1200.842 535.307 1201.782 533.585 1201.938 533.272 1202.721 533.741 1203.347 532.489 1202.565 532.019 1203.817 529.514" fill="#b79474"/>
    <polygon points="1203.817 529.514 1198.493 526.695 1197.397 528.731 1195.831 527.791 1192.856 533.429 1193.483 533.898 1193.326 534.212 1194.892 534.995 1194.578 535.464 1200.372 538.596 1201.782 535.777 1200.842 535.307 1201.782 533.585 1201.938 533.272 1202.721 533.741 1203.347 532.489 1202.565 532.019 1203.817 529.514" fill="none" stroke="#fff"/>
  </g>
  <g>
    <polygon points="1307.396 256.492 1285.316 265.888 1290.327 278.572 1303.637 273.091 1306.768 271.839 1312.406 269.49 1307.396 256.492" fill="#0b67f9"/>
    <polygon points="1307.396 256.492 1285.316 265.888 1290.327 278.572 1303.637 273.091 1306.768 271.839 1312.406 269.49 1307.396 256.492" fill="none" stroke="#fff" stroke-width=".7"/>
  </g>
  <g>
    <polygon points="1105.551 499.207 1093.336 521.443 1096.625 523.635 1095.685 525.044 1098.034 526.297 1098.817 524.888 1100.853 526.141 1108.526 516.432 1109.309 515.336 1111.031 516.276 1111.658 515.336 1114.163 510.638 1115.259 509.072 1115.573 508.446 1116.982 505.471 1105.551 499.207" fill="#0b67f9"/>
    <polygon points="1105.551 499.207 1093.336 521.443 1096.625 523.635 1095.685 525.044 1098.034 526.297 1098.817 524.888 1100.853 526.141 1108.526 516.432 1109.309 515.336 1111.031 516.276 1111.658 515.336 1114.163 510.638 1115.259 509.072 1115.573 508.446 1116.982 505.471 1105.551 499.207" fill="none" stroke="#fff" stroke-width=".7"/>
  </g>
  <g>
    <polygon points="1395.086 881.13 1389.918 879.878 1388.822 880.973 1385.534 880.19 1376.921 889.272 1377.234 889.899 1371.753 895.536 1368.778 894.91 1365.96 897.729 1367.839 903.679 1366.743 904.775 1368.466 910.569 1369.405 909.629 1369.092 908.846 1370.188 907.751 1373.633 908.534 1375.825 906.185 1375.199 903.992 1376.921 904.305 1381.306 899.608 1381.775 899.138 1381.775 898.825 1385.377 894.91 1384.594 892.404 1389.605 887.08 1392.58 884.105 1393.207 883.322 1393.99 883.479 1394.929 882.539 1393.833 882.539 1395.086 881.13" fill="#0b67f9"/>
    <polygon points="1395.086 881.13 1389.918 879.878 1388.822 880.973 1385.534 880.19 1376.921 889.272 1377.234 889.899 1371.753 895.536 1368.778 894.91 1365.96 897.729 1367.839 903.679 1366.743 904.775 1368.466 910.569 1369.405 909.629 1369.092 908.846 1370.188 907.751 1373.633 908.534 1375.825 906.185 1375.199 903.992 1376.921 904.305 1381.306 899.608 1381.775 899.138 1381.775 898.825 1385.377 894.91 1384.594 892.404 1389.605 887.08 1392.58 884.105 1393.207 883.322 1393.99 883.479 1394.929 882.539 1393.833 882.539 1395.086 881.13" fill="none" stroke="#fff" stroke-width=".7"/>
  </g>
  <g>
    <polygon points="1284.846 282.643 1281.871 267.61 1271.536 269.646 1276.077 282.33 1274.354 282.173 1274.354 284.209 1274.511 284.209 1287.352 284.679 1287.352 282.643 1284.846 282.643" fill="#0b67f9"/>
    <polygon points="1284.846 282.643 1281.871 267.61 1271.536 269.646 1276.077 282.33 1274.354 282.173 1274.354 284.209 1274.511 284.209 1287.352 284.679 1287.352 282.643 1284.846 282.643" fill="none" stroke="#fff" stroke-width=".7"/>
  </g>
  <g>
    <polygon points="1350.716 982.14 1346.63 979.411 1341.287 987.599 1334.843 997.392 1328.557 1007.024 1336.101 1012.162 1354.802 985.191 1350.716 982.14" fill="#bca79b"/>
    <polygon points="1350.716 982.14 1346.63 979.411 1341.287 987.599 1334.843 997.392 1328.557 1007.024 1336.101 1012.162 1354.802 985.191 1350.716 982.14" fill="none" stroke="#63564d" stroke-width=".7"/>
  </g>
  <g>
    <polygon points="1342.544 1007.988 1339.087 1013.125 1340.972 1014.41 1341.287 1014.41 1344.587 1009.432 1342.544 1007.988" fill="#bca79b"/>
    <polygon points="1342.544 1007.988 1339.087 1013.125 1340.972 1014.41 1341.287 1014.41 1344.587 1009.432 1342.544 1007.988" fill="none" stroke="#63564d" stroke-width=".7"/>
  </g>
  <g>
    <path d="M1355.019,999.228c-3.952-1.548-7.91-4.055-10.121-5.486-2.73-1.767-5.544-3.227-9.539-9.431" fill="none" stroke="#ff8500" stroke-miterlimit="10"/>
    <polygon points="1353.396 995.861 1363.854 999.935 1352.76 1001.636 1353.396 995.861" fill="#ff8500"/>
    <polygon points="1338.93 984.551 1331.043 976.566 1333.88 987.425 1338.93 984.551" fill="#ff8500"/>
  </g>
  <g>
    <path d="M1329.198,994.494c4.586.799,7.881,2.755,10.592,4.615,2.091,1.434,6.616,4.535,10.003,8.096" fill="none" stroke="#ff8500" stroke-miterlimit="10"/>
    <polygon points="1331.095 997.622 1320.334 994.436 1331.246 991.813 1331.095 997.622" fill="#ff8500"/>
    <polygon points="1346.06 1007.084 1354.01 1015.007 1351.088 1004.17 1346.06 1007.084" fill="#ff8500"/>
  </g>
<style>
#g-Better-Yale-Website-_Recovered_-Artboard_1-interactions-img rect, #g-Better-Yale-Website-_Recovered_-Artboard_1-interactions-img circle, #g-Better-Yale-Website-_Recovered_-Artboard_1-interactions-img path, #g-Better-Yale-Website-_Recovered_-Artboard_1-interactions-img line, #g-Better-Yale-Website-_Recovered_-Artboard_1-interactions-img polyline, #g-Better-Yale-Website-_Recovered_-Artboard_1-interactions-img polygon { vector-effect: non-scaling-stroke; }
</style>
</svg>
