<?xml version="1.0" encoding="UTF-8"?>
<svg id="g-Better-Yale-Google-Slides-Union-Station-Artboard_2-interactions-img" xmlns="http://www.w3.org/2000/svg" baseProfile="tiny" version="1.2" viewBox="0 0 275.349 319.742">
  <!-- Generator: Adobe Illustrator 29.4.0, SVG Export Plug-In . SVG Version: 2.1.0 Build 152)  -->
  <line x1="105.356" y1="215.134" x2="16.096" y2="340.575" fill="none" stroke="#fff" stroke-miterlimit="10" stroke-width="2"/>
  <path d="M127.621,183.227c57.528-89.204,80.371-122.724,85.086-135.381,3.147-8.449,6.831-20.184,7.951-31.012,1.193-11.531,2.624-25.896,3.977-31.013,5.461-20.659,3.05-24,22.265-66.299,15.307-33.696,30.247-59.156,43.537-83.196,19.68-35.598,47.448-88.408,81.507-161.921" fill="none" stroke="#fff" stroke-miterlimit="10" stroke-width="2"/>
  <g>
    <polygon points="133.387 184.32 128.218 180.941 121.459 191.08 113.308 203.206 105.356 215.134 114.899 221.496 138.555 188.098 133.387 184.32" fill="#bca79b"/>
    <polygon points="133.387 184.32 128.218 180.941 121.459 191.08 113.308 203.206 105.356 215.134 114.899 221.496 138.555 188.098 133.387 184.32" fill="none" stroke="#63564d" stroke-width=".7"/>
  </g>
  <g>
    <polygon points="123.049 216.327 118.676 222.688 121.061 224.279 121.459 224.279 125.634 218.116 123.049 216.327" fill="#bca79b"/>
    <polygon points="123.049 216.327 118.676 222.688 121.061 224.279 121.459 224.279 125.634 218.116 123.049 216.327" fill="none" stroke="#63564d" stroke-width=".7"/>
  </g>
  <g>
    <path d="M178.123,87.712c8.633-12.483,17.266-24.966,25.899-37.449" fill="none" stroke="#ff8500" stroke-miterlimit="10"/>
    <polygon points="207.294 54.299 208.105 44.36 199.092 48.626 207.294 54.299" fill="#ff8500"/>
  </g>
  <g>
    <path d="M162.966,112.972c-8.72,13.174-17.439,26.348-26.159,39.522"/>
    <g>
      <path d="M162.966,112.972c-7.399,11.179-14.799,22.359-22.198,33.538" fill="none" stroke="#ff8500" stroke-miterlimit="10"/>
      <polygon points="137.415 142.541 136.807 152.494 145.732 148.045 137.415 142.541" fill="#ff8500"/>
    </g>
  </g>
  <g>
    <path d="M134.004,202.431c-3.952-1.548-7.91-4.055-10.121-5.486-2.73-1.767-5.544-3.227-9.539-9.431" fill="none" stroke="#ff8500" stroke-miterlimit="10"/>
    <polygon points="132.381 199.064 142.839 203.138 131.746 204.839 132.381 199.064" fill="#ff8500"/>
    <polygon points="117.915 187.754 110.028 179.769 112.866 190.628 117.915 187.754" fill="#ff8500"/>
  </g>
  <g>
    <path d="M108.183,197.697c4.586.799,7.881,2.755,10.592,4.615,2.091,1.434,6.616,4.535,10.003,8.096" fill="none" stroke="#ff8500" stroke-miterlimit="10"/>
    <polygon points="110.081 200.825 99.319 197.639 110.231 195.017 110.081 200.825" fill="#ff8500"/>
    <polygon points="125.046 210.287 132.995 218.21 130.073 207.373 125.046 210.287" fill="#ff8500"/>
  </g>
<style>
#g-Better-Yale-Google-Slides-Union-Station-Artboard_2-interactions-img rect, #g-Better-Yale-Google-Slides-Union-Station-Artboard_2-interactions-img circle, #g-Better-Yale-Google-Slides-Union-Station-Artboard_2-interactions-img path, #g-Better-Yale-Google-Slides-Union-Station-Artboard_2-interactions-img line, #g-Better-Yale-Google-Slides-Union-Station-Artboard_2-interactions-img polyline, #g-Better-Yale-Google-Slides-Union-Station-Artboard_2-interactions-img polygon { vector-effect: non-scaling-stroke; }
</style>
</svg>
